<svg xmlns="http://www.w3.org/2000/svg" viewBox="0 0 380 380"><g id="freepik--background-simple--inject-2"><path d="M189.59,179c68.1,15.12,164-158.32,222.72-44.62C460.18,227.17,363.52,303.79,287,300.05,209.29,296.25,137.2,419,81.31,303.86c-17.1-35.22-24.77-89.86.83-125.75C122.87,121,148.07,169.81,189.59,179Z" style="fill:#407BFF"></path><path d="M189.59,179c68.1,15.12,164-158.32,222.72-44.62C460.18,227.17,363.52,303.79,287,300.05,209.29,296.25,137.2,419,81.31,303.86c-17.1-35.22-24.77-89.86.83-125.75C122.87,121,148.07,169.81,189.59,179Z" style="fill:#fff;opacity:0.9"></path></g><g id="freepik--Shadow--inject-2"><ellipse id="freepik--path--inject-2" cx="250" cy="416.24" rx="193.89" ry="11.32" style="fill:#f5f5f5"></ellipse></g><g id="freepik--Character--inject-2"><rect x="127.11" y="196.67" width="140.21" height="108.14" rx="3.19" style="fill:#407BFF"></rect><polygon points="214.3 410.24 216.83 410.24 213.92 307.58 210.41 307.58 214.3 410.24" style="fill:#407BFF"></polygon><polygon points="214.3 410.24 216.83 410.24 213.92 307.58 210.41 307.58 214.3 410.24" style="fill:#fff;opacity:0.30000000000000004"></polygon><polygon points="190.97 410.24 188.44 410.24 191.36 307.58 194.86 307.58 190.97 410.24" style="fill:#407BFF"></polygon><polygon points="190.97 410.24 188.44 410.24 191.36 307.58 194.86 307.58 190.97 410.24" style="fill:#fff;opacity:0.30000000000000004"></polygon><polygon points="154.59 410.24 157.13 410.24 154.21 307.58 150.7 307.58 154.59 410.24" style="fill:#407BFF"></polygon><polygon points="154.59 410.24 157.13 410.24 154.21 307.58 150.7 307.58 154.59 410.24" style="fill:#fff;opacity:0.30000000000000004"></polygon><polygon points="131.27 410.24 128.73 410.24 131.65 307.58 135.15 307.58 131.27 410.24" style="fill:#407BFF"></polygon><polygon points="131.27 410.24 128.73 410.24 131.65 307.58 135.15 307.58 131.27 410.24" style="fill:#fff;opacity:0.30000000000000004"></polygon><polygon points="241.31 384.15 250.33 381.1 242.91 360.04 233.9 363.09 241.31 384.15" style="fill:#ffc3bd"></polygon><path d="M249.66,377.62,239.78,382a.6.6,0,0,0-.33.85l3.75,7.62a1.93,1.93,0,0,0,2.39.81c3.41-1.57,4.94-2.48,9.29-4.39,2.68-1.17,8.07-3.26,11.41-5.41s.72-5.25-.92-4.63c-3.89,1.48-10.36,1.42-13.9.66A3,3,0,0,0,249.66,377.62Z" style="fill:#263238"></path><polygon points="233.9 363.1 242.92 360.04 247.15 372.09 237.98 374.71 233.9 363.1" style="opacity:0.2"></polygon><path d="M177.42,268.19s45,8.12,48.63,22.9c7.13,29.22,23.21,74.92,23.21,74.92l-17.12,5s-24.48-52.41-27.56-70.05c-25.25,0-56,2-60-8.68-3.51-9.48-2.26-24.05-2.26-24.05Z" style="fill:#263238"></path><polygon points="231.2 374 251.2 367.4 249.49 358.37 227.68 366.05 231.2 374" style="fill:#407BFF"></polygon><polygon points="202.11 387.35 212.07 388.11 206.22 363.53 196.93 365.63 202.11 387.35" style="fill:#ffc3bd"></polygon><path d="M211.82,385.71l-10.73-1.19a.61.61,0,0,0-.72.58l-.56,8.48a2,2,0,0,0,1.67,1.89c3.73.35,5.52.32,10.24.84,2.9.32,8.62,1.21,12.59,1s3.25-4.2,1.51-4.47c-4.11-.67-9.67-3.95-12.36-6.38A2.93,2.93,0,0,0,211.82,385.71Z" style="fill:#263238"></path><polygon points="196.93 365.64 206.22 363.54 209.17 375.96 199.78 377.61 196.93 365.64" style="opacity:0.2"></polygon><path d="M154,268.19s54.71,8.19,52.2,28.9c-3.61,29.86,5.66,73.05,5.66,73.05l-17.55,3.14s-12.9-53.68-13-71.59c-17.8,0-48.9,1.27-52.88-9.45-3.51-9.48-2.26-24.05-2.26-24.05Z" style="fill:#263238"></path><polygon points="193.1 376.2 213.69 371.72 212.93 362.57 190.43 367.92 193.1 376.2" style="fill:#407BFF"></polygon><path d="M182.86,210.64c1.46,5.72,2.89,11.49,4.29,17.24s2.77,11.51,4.22,17.19l1.09,4.23.56,2.08.29,1,0,.13,0,.06s0-.09-.05-.13a3.66,3.66,0,0,0-.28-.59l-.15-.23-.11-.15-.2-.22c-.21-.2-.24-.17-.19-.12a1.89,1.89,0,0,0,.36.29,10.88,10.88,0,0,0,1.38.79c1.08.53,2.34,1,3.63,1.52,5.2,1.93,10.94,3.57,16.52,5.34l-.88,6.38a90.82,90.82,0,0,1-9.2-.36,81.94,81.94,0,0,1-9.27-1.3,40.56,40.56,0,0,1-4.86-1.26,21.9,21.9,0,0,1-2.69-1.06,12.5,12.5,0,0,1-1.55-.86,10.26,10.26,0,0,1-1.89-1.55c-.18-.2-.35-.39-.55-.65l-.28-.38-.28-.47a7.55,7.55,0,0,1-.53-1.1l-.16-.46-.39-1.1-.75-2.18c-.49-1.45-1-2.9-1.41-4.34-1.81-5.78-3.46-11.53-5-17.32s-3-11.57-4.34-17.43Z" style="fill:#ffc3bd"></path><path d="M168.8,203.72c5.49-6.12,14.19-1.84,17.86,11.86,1.78,6.66,1.22,10.14,1.22,10.14l-18.94,5.84C164.87,222.56,161.33,212.06,168.8,203.72Z" style="fill:#407BFF"></path><g style="opacity:0.2"><path d="M168.8,203.72c5.49-6.12,14.19-1.84,17.86,11.86,1.78,6.66,1.22,10.14,1.22,10.14l-18.94,5.84C164.87,222.56,161.33,212.06,168.8,203.72Z"></path></g><path d="M224.15,256.5l-1.7-.52a7.93,7.93,0,0,0-3.18-.29l-3.65.43a8.59,8.59,0,0,0-5.57,4.27l-1.24,2.42c.62,4.46,9.66,3,9.66,3H227l-.28-6.06A3.61,3.61,0,0,0,224.15,256.5Z" style="fill:#ffc3bd"></path><path d="M230,246.74A9,9,0,0,1,228,251.2c-.91,1.33-1.85,2.65-2.8,4-1.91,2.61-3.86,5.18-6,7.63a.58.58,0,0,1-.95-.65c1.48-2.9,3.15-5.66,4.86-8.4q1.29-2.05,2.64-4.07a9.11,9.11,0,0,1,3.37-3.56.66.66,0,0,1,1,.64Z" style="fill:#263238"></path><path d="M170.07,197.79l-10.67-3-13.73-.64a9.51,9.51,0,0,0-9.49,6.56c-2.62,8-5,19.52-6.78,29.49a231.8,231.8,0,0,0-3.21,38h51.23c1.05-28.45,4.4-42.35,6.38-52.42a13.72,13.72,0,0,0-7.55-15Z" style="fill:#407BFF"></path><path d="M155.76,199.79c1.3,3.34,6.33,10.48,12.18,13.27,3.25-2.35,3.95-7.48,4.44-9.88Z" style="fill:#fff"></path><path d="M172.38,203.18a5.2,5.2,0,0,0-.44-3.94c-.83-1.3-.62-2.79.21-4.32a14.91,14.91,0,0,1,2.45-3.33l-6.71-7.85-5.47-6.34c-.47,5.93-.93,13.28-5.61,17.88-1.65,1.63-2,2.12-1.05,4.51,1.3,3.34,6,8,11.8,10.79A11.37,11.37,0,0,0,172.38,203.18Z" style="fill:#ffc3bd"></path><path d="M172.54,190.24l-3.79-6.15c-.07.16-.16.33-.25.51a14.39,14.39,0,0,0-.82,2.36c-.69,2.73,1.63,6.63,4.17,8.49.11-.17.2-.35.3-.53a18.68,18.68,0,0,1,2.29-3.23,1,1,0,0,1,.16-.1Z" style="opacity:0.2"></path><path d="M185.78,175.54c.88,5.67,9-8.92,4.46-12.12C184.7,159.5,184.12,164.75,185.78,175.54Z" style="fill:#263238"></path><path d="M162.67,168.14c-.52,9.21-1.31,14.56,2.92,19.88,6.36,8,18.57,5.36,21.94-3.45,3-7.94,3.37-21.66-5.48-26.52S163.19,158.94,162.67,168.14Z" style="fill:#ffc3bd"></path><path d="M180.82,162.61s5.89,5.78,10.09,3.39,5.05-8.58,0-14c-2.43-2.61-6.11-5.16-13.33-5a5.56,5.56,0,0,0,2,1.25s-9.16-1.53-15.54,1.1a5.86,5.86,0,0,0,2,1.86c-6.21-.47-12.25,2-8,7.83-5.63.55-6.89,7.75-3.89,12.5s3.53,8.31,7.54,10.47c0-6.47,1.49-8,1.49-8,2.89-1.23,6.22-7.39,5.55-10.5C174.91,166,181.5,166.82,180.82,162.61Z" style="fill:#263238"></path><path d="M159.52,158.83a12.7,12.7,0,0,1-4.39-5.55c-.72,3.22,2.61,6.89,2.61,6.89Z" style="fill:#263238"></path><path d="M158.07,173.17a8.76,8.76,0,0,0,2.33,5.67c1.91,2,4.51.3,5-2.27.4-2.31-.58-5.84-3-6.88S158,170.59,158.07,173.17Z" style="fill:#ffc3bd"></path><path d="M177.75,172.89c-.15.76.12,1.47.61,1.59s1-.4,1.17-1.16-.12-1.47-.61-1.59S177.9,172.14,177.75,172.89Z" style="fill:#263238"></path><path d="M186.25,174.92c-.16.76.12,1.46.61,1.58s1-.4,1.17-1.16-.13-1.47-.62-1.58S186.4,174.16,186.25,174.92Z" style="fill:#263238"></path><path d="M183.42,174.86a24.57,24.57,0,0,0,1.52,6.36c-1.4.71-3.16-.36-3.16-.36Z" style="fill:#ed847e"></path><path d="M180.21,185.11a6.66,6.66,0,0,1-4.29-3,.23.23,0,1,1,.4-.22,6.37,6.37,0,0,0,4.82,2.88.21.21,0,0,1,.2.24.22.22,0,0,1-.24.21A7.55,7.55,0,0,1,180.21,185.11Z" style="fill:#263238"></path><path d="M176.63,169.83a.46.46,0,0,1-.18-.13.46.46,0,0,1,.06-.64,4.35,4.35,0,0,1,4-.9.45.45,0,1,1-.29.86,3.48,3.48,0,0,0-3.13.74A.45.45,0,0,1,176.63,169.83Z" style="fill:#263238"></path><path d="M187.3,170a.55.55,0,0,1,0-.22.47.47,0,0,1,.56-.32,4.37,4.37,0,0,1,3,2.78.45.45,0,0,1-.31.56.45.45,0,0,1-.56-.31,3.43,3.43,0,0,0-2.39-2.15A.48.48,0,0,1,187.3,170Z" style="fill:#263238"></path><path d="M147.81,207.88c-1.92,5.48-3.84,11.19-5.55,16.79-.87,2.8-1.66,5.61-2.37,8.38a71.5,71.5,0,0,0-1.6,8.08c0,.3-.08.63-.09.92l0,.44c0,.14,0,.35,0,.28s-.08.06,0,.27a5.71,5.71,0,0,0,1.21,2.06,30.79,30.79,0,0,0,5.8,5,129.85,129.85,0,0,0,15.05,8.74L158.12,265a79.29,79.29,0,0,1-9.15-2.58,73.35,73.35,0,0,1-8.92-3.73,36.93,36.93,0,0,1-8.7-5.91,16.88,16.88,0,0,1-3.92-5.41,11.88,11.88,0,0,1-1-4.16c0-.45,0-.61,0-.85v-.7c0-.47,0-.9,0-1.35a67.72,67.72,0,0,1,1.25-9.91c.6-3.16,1.35-6.22,2.16-9.26a178.07,178.07,0,0,1,5.81-17.82Z" style="fill:#ffc3bd"></path><path d="M145,194.09c9.78-.09,11.63,7.52,6.31,19.58A68.82,68.82,0,0,1,143.89,226l-16.17-8.59C129.88,207.78,133.83,194.19,145,194.09Z" style="fill:#407BFF"></path><path d="M172,257.88l-3.58-2a3.14,3.14,0,0,0-1.92-.36l-4.3.6c-2.89.3-5,2.51-6.57,4.43l-1.83,2.24c-.09,4.52,11.33,3.46,11.33,3.46l10-.13-.31-3.94A5.44,5.44,0,0,0,172,257.88Z" style="fill:#ffc3bd"></path></g><g id="freepik--Desk--inject-2"><rect x="114.65" y="263.89" width="270.69" height="12.67" style="fill:#407BFF"></rect><rect x="114.65" y="263.89" width="87.8" height="12.67" style="fill:#fff;opacity:0.30000000000000004"></rect><rect x="117.76" y="276.56" width="4.14" height="139.68" style="fill:#407BFF"></rect><rect x="117.76" y="276.56" width="4.14" height="139.68" style="fill:#fff;opacity:0.7000000000000001"></rect><rect x="195.21" y="276.56" width="4.14" height="139.68" style="fill:#407BFF"></rect><rect x="195.21" y="276.56" width="4.14" height="139.68" style="fill:#fff;opacity:0.7000000000000001"></rect><rect x="300.65" y="276.56" width="4.14" height="139.68" style="fill:#407BFF"></rect><rect x="300.65" y="276.56" width="4.14" height="139.68" style="fill:#fff;opacity:0.7000000000000001"></rect><rect x="378.1" y="276.56" width="4.14" height="139.68" style="fill:#407BFF"></rect><rect x="378.1" y="276.56" width="4.14" height="139.68" style="fill:#fff;opacity:0.7000000000000001"></rect><path d="M356,207.89H282a5.6,5.6,0,0,0-5.3,4.55l-7.72,46.89a3.78,3.78,0,0,0,3.8,4.56h74a5.6,5.6,0,0,0,5.31-4.56l7.72-46.89A3.77,3.77,0,0,0,356,207.89Z" style="fill:#263238"></path><rect x="238.51" y="260.83" width="71.33" height="3.06" rx="0.83" style="fill:#263238"></rect><path d="M356,207.89H283.62a5.6,5.6,0,0,0-5.3,4.55l-7.72,46.89a3.77,3.77,0,0,0,3.8,4.56h72.33a5.6,5.6,0,0,0,5.31-4.56l7.72-46.89A3.77,3.77,0,0,0,356,207.89Z" style="fill:#fff;opacity:0.2"></path><path d="M164.46,260.83s23.83,3.55,35.33-1.14c5.38,2.59,24.54,3.87,31.21,1.14-2.06,2.39-6.9,3.06-6.9,3.06H173.83C169,263.89,165.31,261.78,164.46,260.83Z" style="fill:#407BFF"></path><path d="M164.46,260.83s23.83,3.55,35.33-1.14c5.38,2.59,24.54,3.87,31.21,1.14-2.06,2.39-6.9,3.06-6.9,3.06H173.83C169,263.89,165.31,261.78,164.46,260.83Z" style="fill:#fff;opacity:0.7000000000000001"></path></g></svg>
