<svg xmlns="http://www.w3.org/2000/svg" data-name="Layer 1" viewBox="0 0 1000 1000"><path fill="#e8eff7" d="M666.8206,727.39261q70.96855-70.92379,70.96862-171.2758T666.8206,384.79617q-70.92381-70.92376-171.2758-70.92377T324.22416,384.79617q-70.92376,70.96864-70.92378,171.32064t70.92378,171.2758q70.96865,70.96857,171.32064,70.96862T666.8206,727.39261Z" data-name="Layer0 0 MEMBER 0 FILL"/><path fill="#e8eff7" d="M887.85214,450.909q-47.28247-47.28255-114.16889-47.28253T659.4695,450.909Q612.187,498.23646,612.187,565.12279T659.4695,679.29168q47.32741,47.32741,114.21375,47.32738t114.16889-47.32738q47.32741-47.28255,47.32738-114.16889T887.85214,450.909Z" data-name="Layer0 0 MEMBER 1 FILL"/><path fill="#e8eff7" d="M769.06264,372.359q-31.53659-31.53662-76.12753-31.53663T616.80758,372.359q-31.53666,31.53666-31.53666,76.12756t31.53666,76.12755q31.53657,31.53661,76.12753,31.53663t76.12753-31.53663q31.53674-31.53665,31.53665-76.12755T769.06264,372.359Z" data-name="Layer0 0 MEMBER 2 FILL"/><path fill="#e8eff7" d="M131.98806,657.64294q0,70.60977,49.92927,120.539t120.539,49.92929q70.60977,0,120.539-49.92929t49.92926-120.539q0-70.60977-49.92926-120.539t-120.539-49.92926q-70.60977,0-120.539,49.92926T131.98806,657.64294Z" data-name="Layer0 0 MEMBER 3 FILL"/><path fill="#e8eff7" d="M404.88857,360.65056a52.91043,52.91043,0,0,0-90.30336-37.41331A52.8787,52.8787,0,1,0,389.367,398.019,50.84358,50.84358,0,0,0,404.88857,360.65056Z" data-name="Layer0 0 MEMBER 4 FILL"/><path fill="#e8eff7" d="M760.22522,753.53511q0-39.02826-27.58894-66.61721t-66.61722-27.589q-39.02826,0-66.61721,27.589T571.8129,753.53511q0,39.02827,27.58895,66.61721t66.61721,27.58895q39.02828,0,66.61722-27.58895T760.22522,753.53511Z" data-name="Layer0 0 MEMBER 5 FILL"/><path fill="#e8eff7" d="M618.55708,794.58208q0-32.38895-22.87864-55.26759t-55.26759-22.87864q-32.389,0-55.26762,22.87864t-22.87864,55.26759q0,32.389,22.87864,55.26759t55.26762,22.87864q32.38894-.00007,55.26759-22.87864Q618.55709,826.97095,618.55708,794.58208Z" data-name="Layer0 0 MEMBER 6 FILL"/><path fill="#e8eff7" d="M823.02933,762.50713a22.51527,22.51527,0,1,0-6.59441,15.83562A21.64706,21.64706,0,0,0,823.02933,762.50713Z" data-name="Layer0 0 MEMBER 7 FILL"/><path fill="#e8eff7" d="M845.45937,744.5631a8.977,8.977,0,1,0-8.972,8.972,9.03741,9.03741,0,0,0,8.972-8.972Z" data-name="Layer0 0 MEMBER 8 FILL"/><path fill="#e8eff7" d="M771.03649,827.91314a8.61,8.61,0,0,0-6.32526-2.60191,8.88493,8.88493,0,0,0-8.972,8.972,8.972,8.972,0,1,0,15.29727-6.37011Z" data-name="Layer0 0 MEMBER 9 FILL"/><path fill="#e8eff7" d="M217.41829,354.28043a31.39818,31.39818,0,1,0,22.20574,9.19631A30.25688,30.25688,0,0,0,217.41829,354.28043Z" data-name="Layer0 0 MEMBER 10 FILL"/><path fill="#e8eff7" d="M190.50225,475.40263a8.977,8.977,0,1,0-8.972,8.972,9.03737,9.03737,0,0,0,8.972-8.972Z" data-name="Layer0 0 MEMBER 11 FILL"/><path fill="#e8eff7" d="M401.34461,224.1862a22.51538,22.51538,0,1,0-6.59444,15.8356A21.64677,21.64677,0,0,0,401.34461,224.1862Z" data-name="Layer0 0 MEMBER 12 FILL"/><path fill="#e8eff7" d="M687.6865,238.40685a17.9782,17.9782,0,1,0,5.24861,12.6954A17.29405,17.29405,0,0,0,687.6865,238.40685Z" data-name="Layer0 0 MEMBER 13 FILL"/><path fill="#e8eff7" d="M799.47779,339.7009a27.02182,27.02182,0,1,0,19.06553-7.85051A26.05278,26.05278,0,0,0,799.47779,339.7009Z" data-name="Layer0 0 MEMBER 14 FILL"/><path fill="#e8eff7" d="M127.69814,529.23473a26.88,26.88,0,0,0-26.916-26.91605,26.91606,26.91606,0,1,0,19.02067,45.93673A25.83023,25.83023,0,0,0,127.69814,529.23473Z" data-name="Layer0 0 MEMBER 15 FILL"/><path fill="#e3ecff" d="M750.73387,382.6331a16.98462,16.98462,0,1,0,4.96786,12.00312A16.3537,16.3537,0,0,0,750.73387,382.6331Z" data-name="Layer0 1 MEMBER 0 FILL"/><path fill="#1c2777" d="M748.47392,408.49071a.04236.04236,0,0,0-.03087-.01544h-1.94394a.04379.04379,0,0,0-.03085.07714.04264.04264,0,0,0,.03085.01544h1.94394a.04379.04379,0,0,0,.03087-.07714m1.62-1.32684a.04238.04238,0,0,0-.03086-.01542h-1.94395a.04645.04645,0,0,0,0,.09257H750.063a.04379.04379,0,0,0,.03086-.07715m1.296-1.31139a.04235.04235,0,0,0-.03086-.01542H749.415a.04644.04644,0,0,0,0,.09256H751.359a.04379.04379,0,0,0,.03086-.07714m1.06453-1.31139a.04246.04246,0,0,0-.03085-.01543h-1.94394a.04644.04644,0,0,0,0,.09257h1.94394a.04378.04378,0,0,0,.03085-.07714m-8.13063,5.32271a.04258.04258,0,0,0,.03085.01545h1.944a.04646.04646,0,0,0,0-.09259h-1.944a.04379.04379,0,0,0-.03085.07714m-3.62562,1.32684a.04244.04244,0,0,0,.03085.01542h1.944a.04644.04644,0,0,0,0-.09256h-1.944a.04379.04379,0,0,0-.03085.07714m13.34536-9.28776a.04244.04244,0,0,0-.03085-.01543h-1.944a.04645.04645,0,0,0,0,.09257h1.944a.04379.04379,0,0,0,.03085-.07714m.57083-1.32682a.04239.04239,0,0,0-.03084-.01543H752.6241a.04644.04644,0,0,0,0,.09257h1.95937a.04378.04378,0,0,0,.03084-.07714m-1.55824-1.32682a.04644.04644,0,0,0,0,.09256H755a.04644.04644,0,0,0,0-.09256h-1.94395m2.28338-1.31139a.04249.04249,0,0,0-.03087-.01543h-1.94394a.04645.04645,0,0,0,0,.09257h1.94394a.04379.04379,0,0,0,.03087-.07714m-4.01132,5.33814a.04254.04254,0,0,0,.03085.01542h1.95938a.04645.04645,0,0,0,0-.09257H751.359a.04379.04379,0,0,0-.03085.07715m2.28335-7.89922a.04251.04251,0,0,0,.03087.01543h1.944a.04645.04645,0,0,0,0-.09257h-1.944a.04379.04379,0,0,0-.03087.07714m-.06169,1.23426a.04644.04644,0,0,0,0,.09256h1.94394a.04644.04644,0,0,0,0-.09256h-1.94394m.108-2.63823a.04378.04378,0,0,0-.03085.07714.0426.0426,0,0,0,.03085.01544h1.94394a.04379.04379,0,0,0,.03087-.07714.04232.04232,0,0,0-.03087-.01544h-1.94394m1.404-3.93418a.04239.04239,0,0,0-.03084-.01543h-1.94395a.04644.04644,0,0,0,0,.09257h1.94395a.04379.04379,0,0,0,.03084-.07714m.47827,2.63823a.04241.04241,0,0,0-.03084-.01545h-1.94395a.04646.04646,0,0,0,0,.09259h1.94395a.04378.04378,0,0,0,.03084-.07714m-.18513-1.32684a.04246.04246,0,0,0-.03085-.01543h-1.944a.04645.04645,0,0,0,0,.09257h1.944a.04379.04379,0,0,0,.03085-.07714m-2.6845-2.65364a.04645.04645,0,0,0,0,.09257h1.94394a.04644.04644,0,0,0,0-.09257h-1.94394m-.58626-1.23425a.04251.04251,0,0,0,.03085.01542h1.94394a.04644.04644,0,0,0,0-.09256H752.115a.04378.04378,0,0,0-.03085.07714m-.69427-1.32682a.04261.04261,0,0,0,.03085.01543h1.94395a.04379.04379,0,0,0,.03086-.07714.04229.04229,0,0,0-.03086-.01543h-1.94395a.04378.04378,0,0,0-.03085.07714m-.864-1.31139a.04266.04266,0,0,0,.03087.01542h1.94394a.04378.04378,0,0,0,.03085-.07714.04234.04234,0,0,0-.03085-.01542h-1.94394a.04379.04379,0,0,0-.03087.07714m-1.03368-1.38854a.04645.04645,0,0,0,0,.09257h1.94395a.04645.04645,0,0,0,0-.09257h-1.94395m.69427-1.28054a.0545.0545,0,0,0-.04629-.04627H748.1962a.04644.04644,0,0,0,0,.09256h1.94395a.0545.0545,0,0,0,.04629-.04629m-3.5639-1.35767a.04644.04644,0,0,0,0,.09257h1.94394a.04645.04645,0,0,0,0-.09257h-1.94394m-2.14452-1.24969a.0426.0426,0,0,0,.03085.01544h1.944a.04646.04646,0,0,0,0-.09259h-1.944a.0438.0438,0,0,0-.03085.07715m-3.40962-1.3114a.04265.04265,0,0,0,.03085.01545h1.94394a.04379.04379,0,0,0,.03087-.07715.04236.04236,0,0,0-.03087-.01544h-1.94394a.04379.04379,0,0,0-.03085.07714Z" data-name="Layer0 1 MEMBER 1 FILL"/><path fill="#bdcdee" d="M748.78992,382.6331a16.98462,16.98462,0,1,0,4.96786,12.00312A16.35364,16.35364,0,0,0,748.78992,382.6331Z" data-name="Layer0 1 MEMBER 2 FILL"/><path fill="#82a3e6" d="M746.31685,385.104a13.499,13.499,0,1,0,3.94835,9.53981A12.99749,12.99749,0,0,0,746.31685,385.104Z" data-name="Layer0 1 MEMBER 3 FILL"/><path fill="#fff" d="M733.24962,389.21431a3.25219,3.25219,0,0,0-.93431,2.4025,3.56355,3.56355,0,0,0,.27584,1.4682,3.193,3.193,0,0,0,.76524,1.07668,5.05879,5.05879,0,0,0,1.17456.80974,16.65112,16.65112,0,0,0,1.62836.70294,3.58458,3.58458,0,0,1,1.35252.78305,1.60966,1.60966,0,0,1,.38262,1.13006,1.42981,1.42981,0,0,1-.436,1.09448,1.74218,1.74218,0,0,1-1.21015.40041,1.76387,1.76387,0,0,1-1.40591-.55168,2.28458,2.28458,0,0,1-.49829-1.58387h-2.50928a4.08263,4.08263,0,0,0,.9788,2.8563,4.21354,4.21354,0,0,0,2.75843,1.26355V402.784h1.37921v-1.72625a4.05321,4.05321,0,0,0,2.536-1.08557,3.25019,3.25019,0,0,0,.92541-2.4025,3.51255,3.51255,0,0,0-.24915-1.37922,3.036,3.036,0,0,0-.703-1.05888,4.54981,4.54981,0,0,0-1.13006-.83643,15.33256,15.33256,0,0,0-1.69955-.79193,4.21862,4.21862,0,0,1-1.42371-.81864,1.46882,1.46882,0,0,1-.38262-1.05888,1.52322,1.52322,0,0,1,.39152-1.11227,1.45459,1.45459,0,0,1,1.10337-.40931,1.42854,1.42854,0,0,1,1.15677.525,2.41717,2.41717,0,0,1,.4182,1.55718h2.51819a4.19845,4.19845,0,0,0-.872-2.75843,3.64876,3.64876,0,0,0-2.40251-1.29024v-1.87751h-1.397v1.85972A3.90968,3.90968,0,0,0,733.24962,389.21431Z" data-name="Layer0 1 MEMBER 4 FILL"/><path fill="#e3ecff" d="M239.33385,569.33309a16.98463,16.98463,0,1,0,4.96786,12.00312A16.3537,16.3537,0,0,0,239.33385,569.33309Z" data-name="Layer0 2 MEMBER 0 FILL"/><path fill="#1c2777" d="M237.07391,595.19071a.04236.04236,0,0,0-.03087-.01544H235.0991a.04379.04379,0,0,0-.03085.07714.04264.04264,0,0,0,.03085.01544H237.043a.04379.04379,0,0,0,.03087-.07714m1.62-1.32684a.0424.0424,0,0,0-.03087-.01542h-1.94394a.04644.04644,0,0,0,0,.09256H238.663a.04379.04379,0,0,0,.03087-.07714m1.296-1.31139a.04242.04242,0,0,0-.03087-.01543H238.015a.04645.04645,0,0,0,0,.09257H239.959a.04379.04379,0,0,0,.03087-.07714m1.06453-1.3114a.04243.04243,0,0,0-.03085-.01542h-1.944a.04644.04644,0,0,0,0,.09257h1.944a.04379.04379,0,0,0,.03085-.07715m-8.13064,5.32272a.0426.0426,0,0,0,.03085.01544h1.944a.04379.04379,0,0,0,.03085-.07714.04237.04237,0,0,0-.03085-.01544h-1.944a.04379.04379,0,0,0-.03085.07714m-3.62562,1.32684a.04245.04245,0,0,0,.03085.01542h1.944a.04644.04644,0,0,0,0-.09256h-1.944a.04379.04379,0,0,0-.03085.07714m13.9162-10.61459a.0424.0424,0,0,0-.03085-.01542h-1.95937a.04644.04644,0,0,0,0,.09257h1.95937a.04379.04379,0,0,0,.03085-.07715m-.57084,1.32682a.04241.04241,0,0,0-.03084-.01542h-1.944a.04644.04644,0,0,0,0,.09256h1.944a.04379.04379,0,0,0,.03084-.07714m-.9874-2.65363a.04379.04379,0,0,0-.03085.07714.04262.04262,0,0,0,.03085.01542H243.6a.04379.04379,0,0,0,.03087-.07714.04233.04233,0,0,0-.03087-.01542h-1.94394m2.28337-1.3114a.04246.04246,0,0,0-.03086-.01542h-1.944a.04644.04644,0,0,0,0,.09256h1.944a.04379.04379,0,0,0,.03086-.07714m-4.01132,5.33814a.04252.04252,0,0,0,.03085.01543h1.95939a.04645.04645,0,0,0,0-.09257H239.959a.04379.04379,0,0,0-.03085.07714m2.28336-7.89921a.04252.04252,0,0,0,.03087.01543h1.94394a.04645.04645,0,0,0,0-.09257h-1.94394a.04379.04379,0,0,0-.03087.07714m-.0617,1.23425a.04644.04644,0,0,0,0,.09257h1.94394a.04645.04645,0,0,0,0-.09257h-1.94394m.108-2.63823a.04646.04646,0,0,0,0,.09259h1.94394a.04646.04646,0,0,0,0-.09259h-1.94394m1.404-3.93418a.0424.0424,0,0,0-.03085-.01542h-1.94394a.04644.04644,0,0,0,0,.09256h1.94394a.04379.04379,0,0,0,.03085-.07714m.29314,1.3114a.04244.04244,0,0,0-.03085-.01543h-1.944a.04645.04645,0,0,0,0,.09257h1.944a.04379.04379,0,0,0,.03085-.07714m.18513,1.32683a.04238.04238,0,0,0-.03085-.01544h-1.944a.04379.04379,0,0,0-.03086.07714.04268.04268,0,0,0,.03086.01544h1.944a.04378.04378,0,0,0,.03085-.07714m-3.425-5.29186a.04644.04644,0,0,0,0,.09256h1.944a.04644.04644,0,0,0,0-.09256h-1.944m.52456,1.38853a.04261.04261,0,0,0,.03085.01543h1.944a.04644.04644,0,0,0,0-.09257h-1.944a.04379.04379,0,0,0-.03085.07714m-1.24967-2.63821a.04258.04258,0,0,0,.03085.01542h1.94394a.04379.04379,0,0,0,.03087-.07714.0423.0423,0,0,0-.03087-.01542h-1.94394a.04378.04378,0,0,0-.03085.07714m-.864-1.31139a.04265.04265,0,0,0,.03086.01542h1.944a.04645.04645,0,0,0,0-.09257h-1.944a.04379.04379,0,0,0-.03086.07715m-1.03368-1.38854a.04645.04645,0,0,0,0,.09257h1.94394a.04644.04644,0,0,0,0-.09257h-1.94394m.69426-1.28054a.05453.05453,0,0,0-.04629-.04628H236.7962a.04645.04645,0,0,0,0,.09257h1.94394a.05453.05453,0,0,0,.04629-.04629m-3.5639-1.35767a.04644.04644,0,0,0,0,.09256h1.944a.04644.04644,0,0,0,0-.09256h-1.944m-2.14452-1.2497a.0426.0426,0,0,0,.03085.01545h1.944a.04646.04646,0,0,0,0-.09259h-1.944a.04379.04379,0,0,0-.03085.07714m-3.40962-1.31139a.04266.04266,0,0,0,.03085.01544h1.944a.04379.04379,0,0,0,.03086-.07714.04234.04234,0,0,0-.03086-.01544h-1.944a.04379.04379,0,0,0-.03085.07714Z" data-name="Layer0 2 MEMBER 1 FILL"/><path fill="#bdcdee" d="M237.38991,569.33309a16.98463,16.98463,0,1,0,4.96786,12.00312A16.35368,16.35368,0,0,0,237.38991,569.33309Z" data-name="Layer0 2 MEMBER 2 FILL"/><path fill="#82a3e6" d="M234.91687,571.804a13.499,13.499,0,1,0,3.94834,9.53981A12.99756,12.99756,0,0,0,234.91687,571.804Z" data-name="Layer0 2 MEMBER 3 FILL"/><path fill="#fff" d="M221.84964,575.91432a3.2522,3.2522,0,0,0-.93431,2.40251,3.56354,3.56354,0,0,0,.27584,1.46819,3.19285,3.19285,0,0,0,.76524,1.07668,5.059,5.059,0,0,0,1.17456.80974,16.65341,16.65341,0,0,0,1.62836.70295,3.5845,3.5845,0,0,1,1.35252.783,1.60962,1.60962,0,0,1,.38263,1.13006,1.42982,1.42982,0,0,1-.436,1.09448,1.74216,1.74216,0,0,1-1.21014.40042,1.76393,1.76393,0,0,1-1.40592-.55168,2.28461,2.28461,0,0,1-.49829-1.58388h-2.50928a4.08267,4.08267,0,0,0,.9788,2.85631,4.21358,4.21358,0,0,0,2.75843,1.26354V589.484h1.37921v-1.72625a4.05321,4.05321,0,0,0,2.536-1.08557,3.25019,3.25019,0,0,0,.92541-2.4025,3.51259,3.51259,0,0,0-.24915-1.37922,3.036,3.036,0,0,0-.703-1.05888,4.54981,4.54981,0,0,0-1.13006-.83643,15.33256,15.33256,0,0,0-1.69955-.79193,4.21846,4.21846,0,0,1-1.4237-.81863,1.46882,1.46882,0,0,1-.38263-1.05889,1.52324,1.52324,0,0,1,.39152-1.11227,1.45465,1.45465,0,0,1,1.10338-.40931,1.42856,1.42856,0,0,1,1.15676.525,2.41719,2.41719,0,0,1,.41821,1.55718h2.51818a4.19845,4.19845,0,0,0-.872-2.75843,3.64877,3.64877,0,0,0-2.40251-1.29023v-1.87751h-1.397v1.85971A3.90973,3.90973,0,0,0,221.84964,575.91432Z" data-name="Layer0 2 MEMBER 4 FILL"/><path fill="#ef8750" d="M388.69406,458.08665l-4.08225-3.90283q-8.03,5.42806-22.34032,11.5739a185.98565,185.98565,0,0,1-28.217,9.64491l6.415,17.944A401.5041,401.5041,0,0,0,388.69406,458.08665Z" data-name="Layer0 3 FILL"/><path fill="#bdcdee" d="M420.24982,726.35142V716.19186H221.87741v10.15956Z" data-name="Layer0 4 MEMBER 0 FILL"/><path fill="#bdcdee" d="M250.15228,718.69442H243.84L182.09836,926.29251h6.31241l9.56186-32.04733h58.19323l-9.52456,32.04733h6.31232l61.74159-207.59809h-6.31232l-12.58734,42.35625H237.56493l12.58735-42.35625m-14.567,49.00479h58.19323l-10.6451,35.85718H224.9029l10.6824-35.85718m45.56849,42.50571-10.6451,35.85718H212.27817l10.68249-35.85718h58.19313m-23.0083,77.39173H199.91488l10.38365-34.88606h58.19323Z" data-name="Layer0 4 MEMBER 1 FILL"/><path fill="#bdcdee" d="M400.68068,718.69442h-6.31241l12.58744,42.35625H348.72509l-12.58735-42.35625h-6.31232l61.74151,207.59809h6.31241l-9.52456-32.04733H446.548l9.56186,32.04733h6.31241l-61.7416-207.59809m-49.93857,49.00479h58.19314l10.68249,35.85718H361.38721l-10.6451-35.85718M421.56,810.20492l10.68249,35.85718H374.01185l-10.6451-35.85718H421.56m12.66212,42.50567,10.38357,34.88606H386.37514l-10.34627-34.88606Z" data-name="Layer0 4 MEMBER 2 FILL"/><path fill="none" stroke="#1c2777" stroke-linecap="round" stroke-linejoin="round" stroke-width="4.34" d="M111.83189,745.90542H66.97237q7.699,88.328,61.009,111.96937a96.09892,96.09892,0,0,0,19.73818,6.23546,135.64394,135.64394,0,0,0,35.88762,2.04111,208.5228,208.5228,0,0,0,26.91571-3.61122m-10.09338,2.243,35.88762,53.83142M147.7195,864.11025v52.26132m35.88762-50.22021,26.91571,68.164m-82.54151-76.44059L93.88808,934.31538" data-name="Layer0 5 1 STROKES"/><path fill="none" stroke="#000" stroke-linecap="round" stroke-linejoin="round" d="M305.78759,946.13706H842.8049" data-name="Layer0 6 1 STROKES"/><path fill="#3542a8" d="M560.25,513.55a1.02527,1.02527,0,1,0,.7.3.9595.9595,0,0,0-.7-.3m.1-3.85a1.0253,1.0253,0,1,0-.3.7.95934.95934,0,0,0,.3-.7m-2.25-5.65a.96659.96659,0,1,0,.7-.3.95927.95927,0,0,0-.7.3m-.25-5a.96659.96659,0,1,0,.7-.3.95927.95927,0,0,0-.7.3m.05-4.95a.96671.96671,0,1,0,.7-.3.95933.95933,0,0,0-.7.3m1.05-5.3a1.02527,1.02527,0,1,0,.7.3.95971.95971,0,0,0-.7-.3m1.6-4a1.02542,1.02542,0,1,0-.3.7.95938.95938,0,0,0,.3-.7m.65-5.6a.96669.96669,0,1,0,.3.7.95919.95919,0,0,0-.3-.7m1,40.85a.96665.96665,0,1,0-.7.3.95933.95933,0,0,0,.7-.3m.55-44.95a1.02527,1.02527,0,1,0-.3.7.95933.95933,0,0,0,.3-.7m-.2-5.45a.96665.96665,0,1,0,.7-.3.95938.95938,0,0,0-.7.3m3.2-3.2a.96665.96665,0,1,0-.7.3.95943.95943,0,0,0,.7-.3m.7-5.95a.96671.96671,0,1,0,.7-.3.95961.95961,0,0,0-.7.3m2.35-4.45a.96659.96659,0,1,0,.7-.3.95932.95932,0,0,0-.7.3m45.05-37.75a.96659.96659,0,1,0,.7-.3.95927.95927,0,0,0-.7.3m4.7-1.65a.96665.96665,0,1,0,.7-.3.95938.95938,0,0,0-.7.3m-13.9,5.8a.96667.96667,0,1,0,.7-.3.95934.95934,0,0,0-.7.3m5.95-2.2a.96669.96669,0,1,0,.3.7.95938.95938,0,0,0-.3-.7m12.75-5.05a.96661.96661,0,1,0,.7-.3.95934.95934,0,0,0-.7.3m6.35-1.2a.96669.96669,0,1,0,.3.7.95928.95928,0,0,0-.3-.7m10.05-1.45a.96657.96657,0,1,0,.3.7.9593.9593,0,0,0-.3-.7m-5,.55a.96657.96657,0,1,0,.3.7.9595.9595,0,0,0-.3-.7M585.5,436.8a.96657.96657,0,1,0,.3.7.9593.9593,0,0,0-.3-.7m3.05-3.6a1.02536,1.02536,0,1,0,.7.3.95928.95928,0,0,0-.7-.3m4.9-2.1a1.02527,1.02527,0,1,0-.3.7.95933.95933,0,0,0,.3-.7m4.2-2.9a1.0253,1.0253,0,1,0-.3.7.95961.95961,0,0,0,.3-.7M572.8,451.9a.96671.96671,0,1,0,.3.7.95955.95955,0,0,0-.3-.7m3.05-3.3a1.02527,1.02527,0,1,0-.3.7.95929.95929,0,0,0,.3-.7m3.1-3.9a1.0253,1.0253,0,1,0-.3.7.95938.95938,0,0,0,.3-.7m1.6-4.4a.96659.96659,0,1,0,.7-.3.95932.95932,0,0,0-.7.3m19.6-15.4a.96671.96671,0,1,0,.7-.3.95933.95933,0,0,0-.7.3m139.1-8.1a1.02542,1.02542,0,1,0-.7-.3.9591.9591,0,0,0,.7.3m-5.9,0a1.02527,1.02527,0,1,0,.3-.7.95931.95931,0,0,0-.3.7m-3.3,1.4a.96671.96671,0,1,0-.7.3.95934.95934,0,0,0,.7-.3m24-8a.96669.96669,0,1,0,.3.7.95938.95938,0,0,0-.3-.7M745,414.55a1.02532,1.02532,0,1,0-.3.7.9596.9596,0,0,0,.3-.7m2.95-.9a.96669.96669,0,1,0-.3-.7.9594.9594,0,0,0,.3.7m9.1-5.8a.96665.96665,0,1,0,.7-.3.95911.95911,0,0,0-.7.3m4.15-2.7a.96671.96671,0,1,0,.7-.3.95956.95956,0,0,0-.7.3m15.1-14.6a.96668.96668,0,1,0,.3.7.95951.95951,0,0,0-.3-.7m-10.45,11.1a1.0253,1.0253,0,1,0,.7.3.95928.95928,0,0,0-.7-.3m2.65-2.5a1.0254,1.0254,0,1,0,.3-.7.95911.95911,0,0,0-.3.7m3.6-4.6a.96659.96659,0,1,0,.7-.3.95954.95954,0,0,0-.7.3m5.2-8.35a.96661.96661,0,1,0,.7-.3.95912.95912,0,0,0-.7.3m3.25-4.65a.96668.96668,0,1,0,.3.7.95951.95951,0,0,0-.3-.7m-.15-4.85a.96667.96667,0,1,0,.7-.3.95934.95934,0,0,0-.7.3m1.95-3.6a.96671.96671,0,1,0-.7.3.95951.95951,0,0,0,.7-.3m-3.65-1.55a.96668.96668,0,1,0,.3.7.95922.95922,0,0,0-.3-.7m3.6-2.1a.96671.96671,0,1,0-.7.3.95934.95934,0,0,0,.7-.3m-8.6,5.6a.96665.96665,0,1,0,.7-.3.9595.9595,0,0,0-.7.3m14.35.15a.96661.96661,0,1,0,.7-.3.95912.95912,0,0,0-.7.3m-2.2-3.6a.96668.96668,0,1,0,.3.7.9595.9595,0,0,0-.3-.7M693.9,416.05a.96665.96665,0,1,0,.7-.3.95927.95927,0,0,0-.7.3m5,.55a.96671.96671,0,1,0,.7-.3.95933.95933,0,0,0-.7.3m-8.5.2a.96671.96671,0,1,0-.7.3.95933.95933,0,0,0,.7-.3m-5.75-2.3a1.02532,1.02532,0,1,0,.7.3.95941.95941,0,0,0-.7-.3m30.9,3.65a1.02536,1.02536,0,1,0-.3.7.95912.95912,0,0,0,.3-.7m4.95,0a1.02527,1.02527,0,1,0-.3.7.95961.95961,0,0,0,.3-.7m3.15-.9a.96671.96671,0,1,0,.7-.3.95938.95938,0,0,0-.7.3m-18.4-.25a.96658.96658,0,1,0,.3.7.95927.95927,0,0,0-.3-.7m5.3,1a1.02536,1.02536,0,1,0-.3.7.959.959,0,0,0,.3-.7m-60.7-5.95a.96668.96668,0,1,0,.3.7.95941.95941,0,0,0-.3-.7m-5.05.1a.96671.96671,0,1,0,.3.7.95955.95955,0,0,0-.3-.7m15.15.1a.96669.96669,0,1,0,.3.7.95928.95928,0,0,0-.3-.7m-6.45-.2a.96665.96665,0,1,0,.7-.3.95923.95923,0,0,0-.7.3m16.55,1a.96668.96668,0,1,0,.3.7.95951.95951,0,0,0-.3-.7m-6.55-.45a.96671.96671,0,1,0,.7-.3.95929.95929,0,0,0-.7.3m16.8,1.55a.96671.96671,0,1,0,.3.7.95955.95955,0,0,0-.3-.7m-5.1-.55a.96668.96668,0,1,0,.3.7A.95951.95951,0,0,0,675.2,413.6Z" data-name="Layer0 7 STROKES 1 FILL"/><path fill="#7493d6" d="M367.93281,660.93564a828.09,828.09,0,0,0-71.23782,59.6639q-34.58706,36.38152-22.56459,89.67531L308.22406,946.156h10.13837q3.0504-68.14249,19.64868-99.58937a81.25217,81.25217,0,0,1,21.57774-26.3329q12.42616-9.73455,31.088-16.10472Q410.16872,711.91974,367.93281,660.93564Z" data-name="Layer0 8 MEMBER 0 FILL"/><path fill="#7493d6" d="M614.16979,660.62164H586.53593L562.62549,804.129h27.90306q54.99833,19.82808,64.37421,71.59667l7.80561,70.43032h11.17011L707.61335,812.1141q13.09906-59.26015-23.46184-91.91831Z" data-name="Layer0 8 MEMBER 1 FILL"/><path fill="#82a3e6" d="M489.27932,166.129q-49.66014,84.02292-79.31264,169.75053a798.44737,798.44737,0,0,0-39.432,172.03839q-18.57205,163.201,31.35721,339.187H578.506Q631.62038,673.13768,610.13238,502.759A803.4021,803.4021,0,0,0,570.476,335.87954Q539.9713,249.479,489.27932,166.129Z" data-name="Layer0 8 MEMBER 2 FILL"/><path fill="#fa6465" d="M566.4835,853.96857l3.858-8.52341H410.505l3.27475,7.26731q4.88979,10.09351,19.51413,10.45242H550.91708Q561.68357,862.806,566.4835,853.96857Z" data-name="Layer0 8 MEMBER 3 FILL"/><path fill="#1c2777" d="M578.506,847.105q5.65231-18.34773,10.40752-36.65066H392.247q4.486,18.258,9.64492,36.65066Z" data-name="Layer0 8 MEMBER 4 FILL"/><path fill="#1c2777" d="M585.97384,802.24956a2.9888,2.9888,0,0,0-.94267-2.1757,2.86523,2.86523,0,0,0-2.10328-.87034,2.97437,2.97437,0,0,0-3.046,3.046,2.866,2.866,0,0,0,.87024,2.1032,2.98889,2.98889,0,0,0,2.17571.94275,3.23678,3.23678,0,0,0,3.04595-3.046Z" data-name="Layer0 8 MEMBER 5 FILL"/><path fill="#1c2777" d="M562.92379,802.24956a2.98882,2.98882,0,0,0-.94266-2.1757,2.86527,2.86527,0,0,0-2.10329-.87034,2.97437,2.97437,0,0,0-3.04595,3.046,2.866,2.866,0,0,0,.87024,2.1032,2.98889,2.98889,0,0,0,2.17571.94275,3.23676,3.23676,0,0,0,3.046-3.046Z" data-name="Layer0 8 MEMBER 6 FILL"/><path fill="#1c2777" d="M539.82381,802.24956a2.98882,2.98882,0,0,0-.94266-2.1757,2.86526,2.86526,0,0,0-2.10329-.87034,2.97439,2.97439,0,0,0-3.046,3.046,2.866,2.866,0,0,0,.87025,2.1032,2.98887,2.98887,0,0,0,2.1757.94275,3.23676,3.23676,0,0,0,3.04595-3.046Z" data-name="Layer0 8 MEMBER 7 FILL"/><path fill="#1c2777" d="M516.72384,802.24956a2.9888,2.9888,0,0,0-.94267-2.1757,2.86523,2.86523,0,0,0-2.10328-.87034,2.97437,2.97437,0,0,0-3.046,3.046,2.866,2.866,0,0,0,.87024,2.1032,2.98889,2.98889,0,0,0,2.17571.94275,3.23678,3.23678,0,0,0,3.04595-3.046Z" data-name="Layer0 8 MEMBER 8 FILL"/><path fill="#1c2777" d="M470.12386,802.24956a2.98882,2.98882,0,0,0-.94266-2.1757,2.86526,2.86526,0,0,0-2.10329-.87034,2.97439,2.97439,0,0,0-3.04595,3.046,2.866,2.866,0,0,0,.87025,2.1032,2.98887,2.98887,0,0,0,2.1757.94275,3.23676,3.23676,0,0,0,3.046-3.046Z" data-name="Layer0 8 MEMBER 9 FILL"/><path fill="#1c2777" d="M447.02389,802.24956a2.9888,2.9888,0,0,0-.94267-2.1757,2.86525,2.86525,0,0,0-2.10328-.87034,2.97439,2.97439,0,0,0-3.046,3.046,2.866,2.866,0,0,0,.87025,2.1032,2.98889,2.98889,0,0,0,2.17571.94275,3.23678,3.23678,0,0,0,3.046-3.046Z" data-name="Layer0 8 MEMBER 10 FILL"/><path fill="#1c2777" d="M423.92379,802.24956a2.98882,2.98882,0,0,0-.94266-2.1757,2.86527,2.86527,0,0,0-2.10329-.87034,2.97437,2.97437,0,0,0-3.046,3.046,2.866,2.866,0,0,0,.87024,2.1032,2.98889,2.98889,0,0,0,2.17571.94275,3.23676,3.23676,0,0,0,3.046-3.046Z" data-name="Layer0 8 MEMBER 11 FILL"/><path fill="#1c2777" d="M400.82381,802.24956a2.98882,2.98882,0,0,0-.94266-2.1757,2.86526,2.86526,0,0,0-2.10329-.87034,2.97439,2.97439,0,0,0-3.04595,3.046,2.866,2.866,0,0,0,.87025,2.1032,2.98887,2.98887,0,0,0,2.1757.94275,3.23676,3.23676,0,0,0,3.046-3.046Z" data-name="Layer0 8 MEMBER 12 FILL"/><path fill="#1c2777" d="M563.37386,338.89956a2.98884,2.98884,0,0,0-.94266-2.17571,2.86529,2.86529,0,0,0-2.10329-.87033,2.97437,2.97437,0,0,0-3.04595,3.046,2.866,2.866,0,0,0,.87025,2.10319,2.98884,2.98884,0,0,0,2.1757.94276,3.23678,3.23678,0,0,0,3.046-3.046Z" data-name="Layer0 8 MEMBER 13 FILL"/><path fill="#1c2777" d="M540.72384,336.94954a2.98881,2.98881,0,0,0-.94267-2.1757,2.86523,2.86523,0,0,0-2.10328-.87034,2.97437,2.97437,0,0,0-3.046,3.046,2.866,2.866,0,0,0,.87024,2.1032,2.98889,2.98889,0,0,0,2.17571.94275,3.23678,3.23678,0,0,0,3.04595-3.046Z" data-name="Layer0 8 MEMBER 14 FILL"/><path fill="#1c2777" d="M517.57381,334.59957a2.98884,2.98884,0,0,0-.94266-2.17571,2.86529,2.86529,0,0,0-2.10329-.87033,2.97437,2.97437,0,0,0-3.046,3.046,2.866,2.866,0,0,0,.87025,2.1032,2.98887,2.98887,0,0,0,2.1757.94275,3.23676,3.23676,0,0,0,3.04595-3.04595Z" data-name="Layer0 8 MEMBER 15 FILL"/><path fill="#1c2777" d="M494.17379,334.29958a2.98886,2.98886,0,0,0-.94266-2.17571,2.8653,2.8653,0,0,0-2.10329-.87033,2.97436,2.97436,0,0,0-3.046,3.046,2.866,2.866,0,0,0,.87024,2.1032,2.98889,2.98889,0,0,0,2.17571.94275,3.23676,3.23676,0,0,0,3.046-3.046Z" data-name="Layer0 8 MEMBER 16 FILL"/><path fill="#1c2777" d="M471.27389,334.79958a2.98883,2.98883,0,0,0-.94267-2.17571,2.86528,2.86528,0,0,0-2.10328-.87033,2.97437,2.97437,0,0,0-3.046,3.046,2.866,2.866,0,0,0,.87025,2.1032,2.98889,2.98889,0,0,0,2.17571.94275,3.23678,3.23678,0,0,0,3.046-3.046Z" data-name="Layer0 8 MEMBER 17 FILL"/><path fill="#1c2777" d="M448.57381,336.24959a2.98882,2.98882,0,0,0-.94266-2.1757,2.86526,2.86526,0,0,0-2.10329-.87034,2.97439,2.97439,0,0,0-3.04595,3.046,2.866,2.866,0,0,0,.87025,2.1032,2.98887,2.98887,0,0,0,2.1757.94275,3.23676,3.23676,0,0,0,3.046-3.046Z" data-name="Layer0 8 MEMBER 18 FILL"/><path fill="#1c2777" d="M424.72384,338.89956a2.98882,2.98882,0,0,0-.94267-2.17571,2.86526,2.86526,0,0,0-2.10328-.87033,2.97436,2.97436,0,0,0-3.046,3.046,2.866,2.866,0,0,0,.87024,2.10319,2.98886,2.98886,0,0,0,2.17571.94276,3.2368,3.2368,0,0,0,3.046-3.046Z" data-name="Layer0 8 MEMBER 19 FILL"/><path fill="#1c2777" d="M489.27932,166.129q-48.22455,81.60048-77.60793,164.81592,76.89012-15.2076,157.05512,0Q538.49088,247.10144,489.27932,166.129Z" data-name="Layer0 8 MEMBER 20 FILL"/><path fill="#1c2777" d="M493.22384,433.99959a2.9888,2.9888,0,0,0-.94267-2.1757,2.86523,2.86523,0,0,0-2.10328-.87034,2.97437,2.97437,0,0,0-3.046,3.046,2.866,2.866,0,0,0,.87024,2.1032,2.98889,2.98889,0,0,0,2.17571.94275,3.23678,3.23678,0,0,0,3.046-3.046Z" data-name="Layer0 8 MEMBER 21 FILL"/><path fill="#1c2777" d="M514.22384,436.84957a2.98882,2.98882,0,0,0-.94267-2.17571,2.86526,2.86526,0,0,0-2.10328-.87033,2.97436,2.97436,0,0,0-3.046,3.046,2.86606,2.86606,0,0,0,.87024,2.1032,2.98889,2.98889,0,0,0,2.17571.94275,3.23678,3.23678,0,0,0,3.046-3.04595Z" data-name="Layer0 8 MEMBER 22 FILL"/><path fill="#1c2777" d="M533.37386,445.49959a2.98882,2.98882,0,0,0-.94266-2.1757,2.86526,2.86526,0,0,0-2.10329-.87034,2.97439,2.97439,0,0,0-3.04595,3.046,2.866,2.866,0,0,0,.87025,2.1032,2.98887,2.98887,0,0,0,2.1757.94275,3.23676,3.23676,0,0,0,3.046-3.046Z" data-name="Layer0 8 MEMBER 23 FILL"/><path fill="#1c2777" d="M549.12386,457.89956a2.98884,2.98884,0,0,0-.94266-2.17571,2.86529,2.86529,0,0,0-2.10329-.87033,2.97437,2.97437,0,0,0-3.04595,3.046,2.866,2.866,0,0,0,.87025,2.10319,2.98884,2.98884,0,0,0,2.1757.94276,3.23678,3.23678,0,0,0,3.046-3.046Z" data-name="Layer0 8 MEMBER 24 FILL"/><path fill="#1c2777" d="M560.97384,475.04958a2.98883,2.98883,0,0,0-.94267-2.17571,2.86526,2.86526,0,0,0-2.10328-.87033,2.97436,2.97436,0,0,0-3.046,3.046,2.866,2.866,0,0,0,.87024,2.1032,2.98889,2.98889,0,0,0,2.17571.94275,3.23678,3.23678,0,0,0,3.04595-3.046Z" data-name="Layer0 8 MEMBER 25 FILL"/><path fill="#1c2777" d="M568.17379,494.14956a2.98884,2.98884,0,0,0-.94266-2.17571,2.8653,2.8653,0,0,0-2.10329-.87033,2.97436,2.97436,0,0,0-3.04595,3.046,2.866,2.866,0,0,0,.87024,2.10319,2.98886,2.98886,0,0,0,2.17571.94276,3.23678,3.23678,0,0,0,3.046-3.046Z" data-name="Layer0 8 MEMBER 26 FILL"/><path fill="#1c2777" d="M569.12386,515.64956a2.98884,2.98884,0,0,0-.94266-2.17571,2.86529,2.86529,0,0,0-2.10329-.87033,2.97437,2.97437,0,0,0-3.04595,3.046,2.866,2.866,0,0,0,.87025,2.10319,2.98884,2.98884,0,0,0,2.1757.94276,3.23678,3.23678,0,0,0,3.046-3.046Z" data-name="Layer0 8 MEMBER 27 FILL"/><path fill="#1c2777" d="M564.77389,536.59957a2.98882,2.98882,0,0,0-.94267-2.17571,2.86528,2.86528,0,0,0-2.10328-.87033,2.97437,2.97437,0,0,0-3.046,3.046,2.866,2.866,0,0,0,.87025,2.1032,2.98889,2.98889,0,0,0,2.17571.94275,3.23678,3.23678,0,0,0,3.046-3.046Z" data-name="Layer0 8 MEMBER 28 FILL"/><path fill="#1c2777" d="M554.82381,554.74959a2.98882,2.98882,0,0,0-.94266-2.1757,2.86526,2.86526,0,0,0-2.10329-.87034,2.97439,2.97439,0,0,0-3.046,3.046,2.866,2.866,0,0,0,.87025,2.1032,2.98887,2.98887,0,0,0,2.1757.94275,3.23676,3.23676,0,0,0,3.04595-3.04595Z" data-name="Layer0 8 MEMBER 29 FILL"/><path fill="#1c2777" d="M541.47384,569.54958a2.98883,2.98883,0,0,0-.94267-2.17571,2.86526,2.86526,0,0,0-2.10328-.87033,2.97436,2.97436,0,0,0-3.046,3.046,2.866,2.866,0,0,0,.87024,2.1032,2.98889,2.98889,0,0,0,2.17571.94275,3.23678,3.23678,0,0,0,3.04595-3.046Z" data-name="Layer0 8 MEMBER 30 FILL"/><path fill="#1c2777" d="M524.22384,580.54958a2.98883,2.98883,0,0,0-.94267-2.17571,2.86526,2.86526,0,0,0-2.10328-.87033,2.97436,2.97436,0,0,0-3.046,3.046,2.866,2.866,0,0,0,.87024,2.1032,2.98889,2.98889,0,0,0,2.17571.94275,3.23678,3.23678,0,0,0,3.04595-3.046Z" data-name="Layer0 8 MEMBER 31 FILL"/><path fill="#1c2777" d="M504.17379,586.29958a2.98886,2.98886,0,0,0-.94266-2.17571,2.8653,2.8653,0,0,0-2.10329-.87033,2.97436,2.97436,0,0,0-3.046,3.046,2.866,2.866,0,0,0,.87024,2.1032,2.98889,2.98889,0,0,0,2.17571.94275,3.23676,3.23676,0,0,0,3.046-3.046Z" data-name="Layer0 8 MEMBER 32 FILL"/><path fill="#1c2777" d="M482.72384,585.79958a2.98883,2.98883,0,0,0-.94267-2.17571,2.86526,2.86526,0,0,0-2.10328-.87033,2.97436,2.97436,0,0,0-3.046,3.046,2.866,2.866,0,0,0,.87024,2.1032,2.98889,2.98889,0,0,0,2.17571.94275,3.23678,3.23678,0,0,0,3.046-3.046Z" data-name="Layer0 8 MEMBER 33 FILL"/><path fill="#1c2777" d="M462.22384,580.04958a2.98883,2.98883,0,0,0-.94267-2.17571,2.86526,2.86526,0,0,0-2.10328-.87033,2.97436,2.97436,0,0,0-3.046,3.046,2.866,2.866,0,0,0,.87024,2.1032,2.98889,2.98889,0,0,0,2.17571.94275,3.23678,3.23678,0,0,0,3.046-3.046Z" data-name="Layer0 8 MEMBER 34 FILL"/><path fill="#1c2777" d="M444.52389,569.04958a2.98883,2.98883,0,0,0-.94267-2.17571,2.86528,2.86528,0,0,0-2.10328-.87033,2.97437,2.97437,0,0,0-3.046,3.046,2.866,2.866,0,0,0,.87025,2.1032,2.98889,2.98889,0,0,0,2.17571.94275,3.23678,3.23678,0,0,0,3.046-3.046Z" data-name="Layer0 8 MEMBER 35 FILL"/><path fill="#1c2777" d="M431.17379,554.24959a2.98882,2.98882,0,0,0-.94266-2.1757,2.86527,2.86527,0,0,0-2.10329-.87034,2.97437,2.97437,0,0,0-3.046,3.046,2.866,2.866,0,0,0,.87024,2.1032,2.98889,2.98889,0,0,0,2.17571.94275,3.23676,3.23676,0,0,0,3.046-3.04595Z" data-name="Layer0 8 MEMBER 36 FILL"/><path fill="#1c2777" d="M421.62386,536.59957a2.98884,2.98884,0,0,0-.94266-2.17571,2.86529,2.86529,0,0,0-2.10329-.87033,2.97437,2.97437,0,0,0-3.04595,3.046,2.866,2.866,0,0,0,.87025,2.1032,2.98887,2.98887,0,0,0,2.1757.94275,3.23676,3.23676,0,0,0,3.046-3.046Z" data-name="Layer0 8 MEMBER 37 FILL"/><path fill="#1c2777" d="M416.87386,515.64956a2.98884,2.98884,0,0,0-.94266-2.17571,2.86529,2.86529,0,0,0-2.10329-.87033,2.97437,2.97437,0,0,0-3.04595,3.046,2.866,2.866,0,0,0,.87025,2.10319,2.98884,2.98884,0,0,0,2.1757.94276,3.23678,3.23678,0,0,0,3.046-3.046Z" data-name="Layer0 8 MEMBER 38 FILL"/><path fill="#1c2777" d="M418.27389,494.59957a2.98882,2.98882,0,0,0-.94267-2.17571,2.86528,2.86528,0,0,0-2.10328-.87033,2.97437,2.97437,0,0,0-3.046,3.046,2.866,2.866,0,0,0,.87025,2.1032,2.98889,2.98889,0,0,0,2.17571.94275,3.23678,3.23678,0,0,0,3.046-3.04595Z" data-name="Layer0 8 MEMBER 39 FILL"/><path fill="#1c2777" d="M425.92379,475.54958a2.98886,2.98886,0,0,0-.94266-2.17571,2.8653,2.8653,0,0,0-2.10329-.87033,2.97436,2.97436,0,0,0-3.046,3.046,2.866,2.866,0,0,0,.87024,2.1032,2.98889,2.98889,0,0,0,2.17571.94275,3.23676,3.23676,0,0,0,3.046-3.046Z" data-name="Layer0 8 MEMBER 40 FILL"/><path fill="#1c2777" d="M437.37386,458.29958a2.98886,2.98886,0,0,0-.94266-2.17571,2.86529,2.86529,0,0,0-2.10329-.87033,2.97437,2.97437,0,0,0-3.04595,3.046,2.866,2.866,0,0,0,.87025,2.1032,2.98887,2.98887,0,0,0,2.1757.94275,3.23676,3.23676,0,0,0,3.046-3.046Z" data-name="Layer0 8 MEMBER 41 FILL"/><path fill="#1c2777" d="M453.12386,445.49959a2.98882,2.98882,0,0,0-.94266-2.1757,2.86526,2.86526,0,0,0-2.10329-.87034,2.97439,2.97439,0,0,0-3.04595,3.046,2.866,2.866,0,0,0,.87025,2.1032,2.98887,2.98887,0,0,0,2.1757.94275,3.23676,3.23676,0,0,0,3.046-3.046Z" data-name="Layer0 8 MEMBER 42 FILL"/><path fill="#1c2777" d="M472.27389,437.34957a2.98882,2.98882,0,0,0-.94267-2.17571,2.86528,2.86528,0,0,0-2.10328-.87033,2.97437,2.97437,0,0,0-3.046,3.046,2.866,2.866,0,0,0,.87025,2.1032,2.98889,2.98889,0,0,0,2.17571.94275,3.23678,3.23678,0,0,0,3.046-3.04595Z" data-name="Layer0 8 MEMBER 43 FILL"/><path fill="#7493d6" d="M499.328,672.50956q-.04485-12.11221-9.10662-12.29167a7.273,7.273,0,0,0-6.54956,3.22991q-2.28787,3.1851-2.51215,9.42061l5.7869,273.28762h6.54962Z" data-name="Layer0 8 MEMBER 44 FILL"/><g data-name="Layer0 8 MEMBER 45 FILL"><path fill="#1c2777" d="M490.44567,444.88952q-27.27492,0-46.60963,19.28984Q424.54616,483.5589,424.54621,510.789A63.45017,63.45017,0,0,0,443.836,557.35371q19.33473,19.33475,46.60963,19.33474t46.56478-19.33474q19.33465-19.28981,19.33469-46.56472,0-27.23007-19.33469-46.60963a63.45039,63.45039,0,0,0-46.56478-19.28984m-39.65632,26.5123a55.82841,55.82841,0,0,1,95.28282,39.432,55.01288,55.01288,0,0,1-3.67851,20.27676,50.18019,50.18019,0,0,1-12.06737,18.6169q-1.59692,1.60644-3.27481,3.05051a55.79493,55.79493,0,0,1-76.26213-81.37619Z"/><path fill="#bdcdee" d="M493.89988,461.7569a51.56669,51.56669,0,0,0,0,103.13333,49.171,49.171,0,0,0,33.1516-12.11222q1.34984-1.20806,2.64676-2.51216a54.62091,54.62091,0,0,0,12.69542-19.15525,51.04225,51.04225,0,0,0,3.05045-17.80946,51.61569,51.61569,0,0,0-51.54423-51.54424Z"/><path fill="#151e64" d="M490.26622,455.02789A55.82843,55.82843,0,1,0,527.05148,552.778a51.54715,51.54715,0,0,1-84.69579-39.47687,51.54423,51.54423,0,0,1,103.08842,0,51.04225,51.04225,0,0,1-3.05045,17.80946,55.01288,55.01288,0,0,0,3.67851-20.27676,55.90439,55.90439,0,0,0-55.806-55.80595Z"/></g><path fill="#fdb086" d="M584.25642,426.95375l.2243.13458a9.3195,9.3195,0,0,1,2.55706,2.6916,5.14416,5.14416,0,0,1-3.1402.35888,12.12175,12.12175,0,0,0-1.52526-.13458,1.95562,1.95562,0,0,0-1.1215.40375q-1.301.98692.0897,2.15328a1.98173,1.98173,0,0,1,1.5701-.35887,10.31168,10.31168,0,0,1,1.70471.58317,6.99908,6.99908,0,0,1,1.5701.8972,17.61594,17.61594,0,0,1,1.7944,1.25608,3.85194,3.85194,0,0,0,2.01871.71778,5.99149,5.99149,0,0,0,4.21685-1.74956,3.74845,3.74845,0,0,0,.71775-.98692,2.34782,2.34782,0,0,0,.35891-1.16636,16.67857,16.67857,0,0,0-2.91591-5.60751,9.93556,9.93556,0,0,0-4.71031-3.00563,7.63126,7.63126,0,0,0-3.5888-.40375q-1.83365.46894-1.929,1.57011a1.85335,1.85335,0,0,0,.4486,1.21122A4.69529,4.69529,0,0,0,584.25642,426.95375Z" data-name="Layer0 9 MEMBER 0 FILL"/><path fill="#fdb086" d="M649.81266,681.49088v6.83168h7.8789v-6.83168Z" data-name="Layer0 9 MEMBER 1 FILL"/><path fill="#fdb086" d="M698.46,681.49088l1.7658,6.83168h7.8789l-1.7658-6.83168Z" data-name="Layer0 9 MEMBER 2 FILL"/><path fill="#ee5758" d="M631.44926,479.26059l20.32158-12.87482V441.623l-33.1067,27.4095a7.46618,7.46618,0,0,0-2.78136,6.86358q.40373,3.858,3.18511,5.06921a9.8891,9.8891,0,0,0,5.51775.80748A17.42815,17.42815,0,0,0,631.44926,479.26059Z" data-name="Layer0 9 MEMBER 3 FILL"/><path fill="#6574f1" d="M677.5095,527.118h-30.819l2.10851,155.171h11.66362Z" data-name="Layer0 9 MEMBER 4 FILL"/><path fill="#7d8bff" d="M664.81408,575.97065q1.2561,9.15143,2.871,13.00942l29.92165,92.95011h10.273l-12.38142-87.7463-.0448-.31405q-2.55705-29.11414-3.0505-66.75179H657.72617Z" data-name="Layer0 9 MEMBER 5 FILL"/><path fill="#fa6465" d="M673.7861,440.17921H657.27757q-9.6.22429-10.587,14.35523V527.118a187.34524,187.34524,0,0,0,46.02649,0l-4.03741-74.064Q686.43667,441.48015,673.7861,440.17921Z" data-name="Layer0 9 MEMBER 6 FILL"/><path fill="#fdb086" d="M604.08054,488.85983a8.64856,8.64856,0,0,0,.08664-7.12419L594.8731,478.088l-3.91036,1.72283a7.05516,7.05516,0,0,0-3.03424,2.98251,9.526,9.526,0,0,0,2.25521,5.00652,5.67338,5.67338,0,0,0,4.24361-.65111l.95436-.52952Q599.69754,491.79793,604.08054,488.85983Z" data-name="Layer0 9 MEMBER 7 FILL"/><path fill="#ff7778" d="M659.19308,489.93065q12.37624-10.587,25.34541-33.57177.97615-6.82988-3.51485-9.89075-5.13789-3.00667-12.34237,4.38606A296.89179,296.89179,0,0,1,647.42785,480.401q-20.309,1.27981-44.13789.78434a32.61168,32.61168,0,0,1-.18551,8.58751q12.85024,2.66958,23.09243,4.0285,11.13818,1.46889,19.33024,1.74747a1.00059,1.00059,0,0,1,.38318.00656,18.308,18.308,0,0,0,1.88322-.19318Q653.25345,494.517,659.19308,489.93065Z" data-name="Layer0 9 MEMBER 8 FILL"/><path fill="#fdb086" d="M652.47756,418.64638l-1.4355,4.93461,6.68411,14.89355,12.02252-3.858,3.72341-12.78512,1.92889-13.99632-20.63563-3.14021a40.4847,40.4847,0,0,1-4.26171,13.95148Z" data-name="Layer0 9 MEMBER 9 FILL"/><path fill="#fdb086" d="M669.74869,433.40535H656.47006l-.4486,8.16452q.40381,3.94765,5.47291,4.21685a9.03428,9.03428,0,0,0,7.716-3.45423Z" data-name="Layer0 9 MEMBER 10 FILL"/><path fill="#3443a8" d="M635.07183,691.93394v2.28791h12.06731a16.00557,16.00557,0,0,0,7.17762-1.97385v1.97385h4.30661q1.5252-4.35142-.314-7.13276a31.951,31.951,0,0,1-8.61311,0A49.76908,49.76908,0,0,1,635.07183,691.93394Z" data-name="Layer0 9 MEMBER 11 FILL"/><path fill="#3443a8" d="M684.91142,691.93394v2.28791h12.06731a16.00557,16.00557,0,0,0,7.17762-1.97385v1.97385H708.463q1.5252-4.35142-.31411-7.13276a31.951,31.951,0,0,1-8.61311,0A49.76715,49.76715,0,0,1,684.91142,691.93394Z" data-name="Layer0 9 MEMBER 12 FILL"/><path fill="#3443a8" d="M676.8814,410.88559q1.0767-8.92716-6.19072-9.55519a43.24711,43.24711,0,0,1-12.20191,0q-4.26183-.71779-5.47291-2.82621-2.42235,3.858-1.3458,6.32529,1.12155,2.60187,5.3832,2.60188a41.15918,41.15918,0,0,1,8.07482.53832q.26925,6.37014-1.9738,16.86738a7.23432,7.23432,0,0,1-1.5701,3.45423,1.83444,1.83444,0,0,1-1.83931.2243,3.13134,3.13134,0,0,1-2.0187-1.52525q-2.82617-4.172-6.68411-3.40935v3.67853q-2.55706,8.88227-.71781,11.215,1.97387,1.70468,8.38882-.26918,5.9664-2.01874,6.86361-3.58881l2.1084-17.8543q.7626-3.14022,3.544-3.31963,2.7813-.13459,2.0635,3.31963-1.301,6.28039-1.5701,8.88229-.31395,3.49909.7626,4.84491a56.76579,56.76579,0,0,1,2.0187-8.61314A58.30622,58.30622,0,0,0,676.8814,410.88559Z" data-name="Layer0 9 MEMBER 13 FILL"/><path fill="#ee5758" d="M595.74065,430.54256l-6.101,5.69723,27.0955,42.61708L627.681,466.43062Z" data-name="Layer0 9 MEMBER 14 FILL"/><path fill="#fdb086" d="M276.19216,903.75012l-17.73841,6.62267a197.90733,197.90733,0,0,0,10.93694,20.63077l13.20217-8.28009Z" data-name="Layer0 10 MEMBER 0 FILL"/><g data-name="Layer0 10 MEMBER 1 FILL"><path fill="#212c87" d="M287.85374,912.33152l-1.97385-6.19071-3.49911.987-24.22444,6.59441-3.544.98695,2.06361,6.28041Z"/><path fill="#2e3a9d" d="M260.89279,833.24319q-5.78693-15.88046-17.944-16.19448-21.3085-.8523-100.08282,4.53086L136.27153,846.791a384.63152,384.63152,0,0,0,47.50681,1.57011q24.7179-.58321,45.6227-3.14021,13.144,41.89928,28.7553,68.50132l24.22444-6.59441Z"/></g><path fill="#2e3a9d" d="M311.36038,920.89979q-12.20192-4.71032-29.92165-2.243-.04485,2.82616-5.38321,5.787-5.38322,2.91594-8.92717,2.46731-2.33273,7.49161,1.70471,12.42622l43.82827-14.62438Z" data-name="Layer0 10 MEMBER 2 FILL"/><path fill="#fdb086" d="M245.52038,914.80517H226.58575a197.91,197.91,0,0,0,3.03087,23.15333l15.26449-3.13941Z" data-name="Layer0 10 MEMBER 3 FILL"/><g data-name="Layer0 10 MEMBER 4 FILL"><path fill="#009982" d="M223.79353,812.29355h2.87106V799.37383h-2.87106Z"/><path fill="#00c4a6" d="M166.82123,732.71177,155.33706,750.297l21.84684,57.4209q2.557,5.114,6.86361,5.83181,8.38884.26918,18.43748.04485,13.0543-.26919,21.30854-1.301V799.37383l-31.98523-3.14021Q181.31106,760.525,166.82123,732.71177Z"/></g><g data-name="Layer0 10 MEMBER 5 FILL"><path fill="#212c87" d="M222.358,916.14463h-3.14021v7.043h33.82446v-7.043H222.358Z"/><path fill="#3542a8" d="M250.79927,846.20776q-.58311-11.08044-5.60751-15.387-3.90277-3.45429-14.13092-5.02437-35.79831-5.4729-90.34818-2.3327l-26.46744,13.32342q1.65982,11.8879,13.81689,18.34779,12.24681,6.45982,33.82451,6.86361,31.80579.89722,55.5368-4.30661a8.72223,8.72223,0,0,0,3.14021,5.60751,445.85988,445.85988,0,0,0,1.7944,52.84519h27.45434A520.88544,520.88544,0,0,0,250.79927,846.20776Z"/></g><path fill="#2e3a9d" d="M237.9693,933.05686q-5.96633,1.07663-9.24116-.49345-4.57567,6.37021-2.3327,12.33652h46.20588v-4.03741q-10.09353-8.29914-27.67871-11.57387Q243.93568,931.93542,237.9693,933.05686Z" data-name="Layer0 10 MEMBER 6 FILL"/><path fill="#00d0b0" d="M158.92587,724.86125q-8.79261-5.60754-21.93659-5.92151-20.32163.71775-30.2357,10.63182-2.557,3.99255-1.8841,11.75337.49341,4.62052,3.3645,17.67483a233.5695,233.5695,0,0,1,4.88973,34.632,265.00982,265.00982,0,0,1-.98692,41.49557q-1.4804,8.03,2.4673,8.83742,3.90282.6729,13.63748-5.69721,15.79071-11.79821,28.6656-17.58519L174.268,819.516q2.557-38.26559-5.51778-80.92759Q167.58384,730.24443,158.92587,724.86125Z" data-name="Layer0 10 MEMBER 7 FILL"/><path fill="#fdb086" d="M174.31287,813.03841a10.48689,10.48689,0,0,0-3.72338-1.70465,17.72325,17.72325,0,0,0-3.94771-.08976q-3.22992.26918-6.05611.40375-3.185.1794-4.03741.22431v6.95331a26.86385,26.86385,0,0,0,5.29351.0897,20.47911,20.47911,0,0,0,4.88974-1.39066q1.07663.26919,3.45423,1.03181,2.19813.71775,3.45423.9869a6.10311,6.10311,0,0,0,2.33273,0q1.25605-.1794,1.16635-.5383-.26913-.987-3.00563-3.544.09956.07763.17945.1346a31.46886,31.46886,0,0,1,2.64673,2.243q.99218.98463,1.52525.80745.53832-.22434.314-1.07666A13.22,13.22,0,0,0,174.31287,813.03841Z" data-name="Layer0 10 MEMBER 8 FILL"/><g data-name="Layer0 10 MEMBER 9 FILL"><path fill="#009982" d="M153.767,820.20717l4.66543-.49351v-9.51031l-4.66543-.49345Z"/><path fill="#00c4a6" d="M112.36109,729.45521a9.14893,9.14893,0,0,0-5.60751,1.16635q-8.02992,5.38321-9.42062,17.45058a335.13628,335.13628,0,0,0-3.31963,42.976q-.22428,17.8543,1.83925,27.18519a6.67249,6.67249,0,0,0,2.73649,4.97946,12.018,12.018,0,0,0,4.8,1.6598,190.28473,190.28473,0,0,0,22.38519-1.5701q19.96275-2.37758,22.65434-2.60185l5.33836-.49345V809.7099q-33.55532-2.46727-38.08622-3.27481,7.17763-28.57587,7.17762-62.4452a21.2114,21.2114,0,0,0-.58318-6.54956,10.732,10.732,0,0,0-3.72338-5.33836A11.58447,11.58447,0,0,0,112.36109,729.45521Z"/></g><g data-name="Layer0 10 MEMBER 10 FILL"><path fill="#e99d73" d="M134.1631,708.89108a34.83173,34.83173,0,0,0,10.40754,7.76081,38.45121,38.45121,0,0,1,.71775-4.84491l-16.32907-10.99072Z"/><path fill="#fdb086" d="M145.24355,721.5865a18.69284,18.69284,0,0,1-.67291-4.93461,34.83173,34.83173,0,0,1-10.40754-7.76081l-5.20378-8.07482a67.68532,67.68532,0,0,1,.40375,9.91407q-.04485,1.88415-.53833,10.00382l12.1571,6.50471Z"/></g><g data-name="Layer0 10 MEMBER 11 FILL"><path fill="#8da1cb" d="M190.64192,822.52167l1.07665-3.00566H161.07915q-3.27482.44857-2.87106,3.00566Z"/><path fill="#bdcdee" d="M267.80125,768.64468H211.63646l-19.06553,53.877,57.062-2.4673,18.16833-51.40969m-32.0301,23.55154a4.58477,4.58477,0,0,1,.76265,4.0374,7.31227,7.31227,0,0,1-2.6019,4.08231,6.9541,6.9541,0,0,1-4.44116,1.6598,4.40327,4.40327,0,0,1-3.67851-1.6598,4.69977,4.69977,0,0,1-.7626-4.08231,7.10882,7.10882,0,0,1,2.60186-4.0374,6.84617,6.84617,0,0,1,4.44115-1.70465A4.35673,4.35673,0,0,1,235.77115,792.19622Z"/><path fill="#fff" d="M236.5338,796.23362a4.58477,4.58477,0,0,0-.76265-4.0374,4.35673,4.35673,0,0,0-3.67851-1.70465,6.84617,6.84617,0,0,0-4.44115,1.70465,7.10882,7.10882,0,0,0-2.60186,4.0374,4.69977,4.69977,0,0,0,.7626,4.08231,4.40327,4.40327,0,0,0,3.67851,1.6598,6.9541,6.9541,0,0,0,4.44116-1.6598A7.31227,7.31227,0,0,0,236.5338,796.23362Z"/><path fill="#a6b8de" d="M211.63646,768.64468h-1.929L191.71857,819.516l-1.07665,3.00566h1.929Z"/></g><path fill="#fdb086" d="M159.38571,684.27361a30.33755,30.33755,0,0,0-1.24863-8.59664H136.53785l-11.30908,21.68535a46.05029,46.05029,0,0,0,7.07534,9.88829,23.95064,23.95064,0,0,0,7.66377,5.23835,14.07018,14.07018,0,0,0,8.35269.4449q4.14761-.94721,6.88879-5.89852a34.08284,34.08284,0,0,0,3.4444-10.936A61.30639,61.30639,0,0,0,159.38571,684.27361Z" data-name="Layer0 10 MEMBER 12 FILL"/><path fill="#3542a8" d="M161.194,669.89326a8.01607,8.01607,0,0,0-2.02353-4.449,10.71021,10.71021,0,0,0-3.9898-2.74116,15.83327,15.83327,0,0,0-4.79344-1.09073,22.99905,22.99905,0,0,0-12.90212,3.01385,49.70887,49.70887,0,0,0-6.774,4.26244q-3.88924,3.12866-4.14761,6.30038-3.00366.12511-4.62126,3.35828a26.02029,26.02029,0,0,0-.50231,16.0882q2.28193,8.56794,8.05129,12.61511-.95844-9.54974,2.65506-9.90264l.67455-10.3619q5.98627-2.00228,5.43926-7.27628a37.00255,37.00255,0,0,0,14.42342-.74629,17.0102,17.0102,0,0,0,4.13324-1.66479,9.67913,9.67913,0,0,0,3.35835-2.76987A6.41276,6.41276,0,0,0,161.194,669.89326Z" data-name="Layer0 10 MEMBER 13 FILL"/><path fill="#252732" d="M159.687,686.48808a4.48436,4.48436,0,0,0-3.57823-.90792,5.19267,5.19267,0,0,0-3.36864,1.93689,5.28375,5.28375,0,0,0-1.04316,3.76778,4.68524,4.68524,0,0,0,5.39975,4.25133,4.81722,4.81722,0,0,0,3.28978-1.99893,4.89682,4.89682,0,0,0,1.122-3.70569,4.67381,4.67381,0,0,0-1.8215-3.34346m-3.54217-.54456a4.15353,4.15353,0,0,1,3.31675.836,4.34083,4.34083,0,0,1,1.68884,3.105,4.53915,4.53915,0,0,1-1.03982,3.4354,4.465,4.465,0,0,1-3.04994,1.85283,4.33431,4.33431,0,0,1-5.00561-3.941,4.90213,4.90213,0,0,1,.961-3.49753A4.81723,4.81723,0,0,1,156.14478,685.94352Z" data-name="Layer0 10 MEMBER 14 FILL"/><path fill="#252732" d="M146.9454,688.02827a4.70858,4.70858,0,0,0-3.75708-.95333,5.45219,5.45219,0,0,0-3.537,2.03366,5.54768,5.54768,0,0,0-1.09533,3.95605,4.91946,4.91946,0,0,0,5.66963,4.46383,5.058,5.058,0,0,0,3.45423-2.0988,5.14149,5.14149,0,0,0,1.1781-3.89085,4.90741,4.90741,0,0,0-1.91253-3.51056m-3.71923-.57181a4.36117,4.36117,0,0,1,3.48253.87783,4.55771,4.55771,0,0,1,1.77324,3.26022,4.76589,4.76589,0,0,1-1.09181,3.60706,4.68809,4.68809,0,0,1-3.20239,1.94539,4.55095,4.55095,0,0,1-5.25578-4.138,5.147,5.147,0,0,1,1.009-3.6723A5.058,5.058,0,0,1,143.22617,687.45646Z" data-name="Layer0 10 MEMBER 15 FILL"/><path fill="#252732" d="M148.18888,689.61759a.22439.22439,0,1,0,.26918.3589,2.36247,2.36247,0,0,1,3.31963,0,.16546.16546,0,0,0,.13457.04485.2583.2583,0,0,0,.17945-.0897.21441.21441,0,0,0-.04485-.31405A2.72786,2.72786,0,0,0,148.18888,689.61759Z" data-name="Layer0 10 MEMBER 16 FILL"/><path fill="#252732" d="M129.81167,691.1265a.28971.28971,0,0,0,.17945.04484l9.06171-.6729a.21236.21236,0,0,0,.17945-.08969.21675.21675,0,0,0,.04485-.17946.178.178,0,0,0-.08969-.1346.2164.2164,0,0,0-.17946-.04485l-9.06174.6729a.24559.24559,0,0,0-.13457.04485.289.289,0,0,0-.04485.17945A.325.325,0,0,0,129.81167,691.1265Z" data-name="Layer0 10 MEMBER 17 FILL"/><path fill="#fdb086" d="M131.0229,690.72274a2.34148,2.34148,0,0,0-2.10843-.4486,2.37186,2.37186,0,0,0-1.48038.8972,4.5845,4.5845,0,0,0-.2243,1.65981,15.2688,15.2688,0,0,0,1.1215,5.1589,4.30851,4.30851,0,0,0,1.03178,1.48041,2.24584,2.24584,0,0,0,1.65983.4486q2.92431-1.1112,2.42242-3.81311a22.3181,22.3181,0,0,0-.628-2.9159A4.23185,4.23185,0,0,0,131.0229,690.72274Z" data-name="Layer0 10 MEMBER 18 FILL"/><path fill="#ff9962" d="M259.57931,708.75353l2.67171-10.54969-8.9502-.03925-2.97,10.54838Z" data-name="Layer0 11 MEMBER 0 FILL"/><path fill="#3542a8" d="M286.1805,711.31669q-.8983-4.35665-7.61762-4.56832l-18.4374-.08086q-3.96237,2.32968-9.43068.67471a5.70788,5.70788,0,0,0-1.98946,4.64542,5.27128,5.27128,0,0,0,1.95125,4.06609l33.29473.146q1.82384-.04258,2.21741-2.198Z" data-name="Layer0 11 MEMBER 1 MEMBER 0 FILL"/><path fill="#6f7cde" d="M262.07568,710.97228a1.79535,1.79535,0,0,0,1.49248-.17249,1.647,1.647,0,0,0,.84034-1.13l.78876-2.98-3.93809-.01727-.486,1.967a2.15633,2.15633,0,0,0,.17245,1.49248A1.83617,1.83617,0,0,0,262.07568,710.97228Z" data-name="Layer0 11 MEMBER 1 MEMBER 1 FILL"/><path fill="#6f7cde" d="M267.746,710.57942a1.79532,1.79532,0,0,0,1.49249-.17242,1.64736,1.64736,0,0,0,.84034-1.13l.66758-2.56287-3.87842-.017-.42447,1.54959a2.15641,2.15641,0,0,0,.17246,1.49248A1.83635,1.83635,0,0,0,267.746,710.57942Z" data-name="Layer0 11 MEMBER 1 MEMBER 2 FILL"/><path fill="#ff9962" d="M324.17657,687.31116l9.21259.81052,1.57936-10.46263-8.91541-.78437Z" data-name="Layer0 11 MEMBER 2 FILL"/><path fill="#3542a8" d="M358.26494,674.46957q-2.66894-3.55844-8.83768-.88692l-16.7136,7.78276q-2.59186,3.79584-8.24386,4.62865a5.70765,5.70765,0,0,0,.17961,5.0501,5.271,5.271,0,0,0,3.49767,2.84693l30.18187-14.0543q1.63174-.81564,1.0694-2.9332Z" data-name="Layer0 11 MEMBER 3 MEMBER 0 FILL"/><path fill="#6f7cde" d="M336.31208,684.42872a1.79527,1.79527,0,0,0,1.27666-.792,1.647,1.647,0,0,0,.2787-1.38033l-.55619-3.0319-3.5699,1.66234.39847,1.98647a2.15636,2.15636,0,0,0,.79194,1.27668A1.83612,1.83612,0,0,0,336.31208,684.42872Z" data-name="Layer0 11 MEMBER 3 MEMBER 1 FILL"/><path fill="#6f7cde" d="M341.27424,681.6573a1.79527,1.79527,0,0,0,1.27669-.7919,1.64728,1.64728,0,0,0,.27871-1.38034l-.48808-2.60292-3.51581,1.63715.27627,1.58268a2.15637,2.15637,0,0,0,.79193,1.27668A1.83631,1.83631,0,0,0,341.27424,681.6573Z" data-name="Layer0 11 MEMBER 3 MEMBER 2 FILL"/><path fill="#6f7df1" d="M273.89576,533.46492q1.17324,8.66326,3.46985,27.11078,2.12661,16.29356,4.14137,27.42773,1.61964,9.15857-4.69674,27.5684l-24.41286,83.82632,10.856.04763q9.49644-17.27432,13.8836-25.41968Q284.69,660.018,289.08277,650.61662q13.08654-27.80076,18.18659-45.04952a276.22019,276.22019,0,0,0,7.24369-35.49746q2.22172-15.60156,3.65883-36.41044Z" data-name="Layer0 11 MEMBER 4 FILL"/><path fill="#7988ff" d="M321.1348,533.40671l-46.83393-.08973q3.37713,22.74743,23.86556,31.80581l37.95162,26.82635-12.29165,88.15,12.83-1.39071,31.31233-97.70521Z" data-name="Layer0 11 MEMBER 5 FILL"/><g data-name="Layer0 11 MEMBER 6 FILL"><path fill="#ed864e" d="M308.0805,442.56505q.231-2.374.5832-4.57573.35887-2.46732.8972-4.71031l-11.39447.8075q4.315,6.8664,9.91407,8.47854m-13.90663-8.16454a.07613.07613,0,0,0,.04488-.04485h-.04488a.06421.06421,0,0,1-.04485.04485v.2243A.82513.82513,0,0,0,294.17387,434.40051Z"/><path fill="#ff9962" d="M298.16643,434.08651l-3.99256.314a.82513.82513,0,0,1-.04485.2243,84.37615,84.37615,0,0,1-4.12713,16.46366,100.86,100.86,0,0,1,17.67488-1.83926q.04485-3.14018.40373-6.59443a.47691.47691,0,0,0,0-.08973Q302.48142,440.95287,298.16643,434.08651Z"/></g><path fill="#ffb73e" d="M308.37026,444.99109l-4.16294-.2726a23.28128,23.28128,0,0,0-17.46064,6.45406Q279.131,458.31616,278.074,470.34l-4.13887,63.20559a87.91947,87.91947,0,0,0,24.26031,2.98229,208.53314,208.53314,0,0,0,25.40018-2.068,666.17827,666.17827,0,0,0-.95769-73.24968l-.08736-.725Q321.33054,448.22241,308.37026,444.99109Z" data-name="Layer0 11 MEMBER 7 FILL"/><g data-name="Layer0 11 MEMBER 8 FILL"><path fill="#ffb73e" d="M342.70781,478.08934a216.517,216.517,0,0,1-17.16944-19.19644q-7.49912-8.86032-10.751-10.60729L295.54256,473.8977a135.85579,135.85579,0,0,0,26.90374,22.18492,89.99825,89.99825,0,0,0,11.63185,6.155,30.66993,30.66993,0,0,0,8.48322-13.31167Q345.03958,481.55122,342.70781,478.08934Z"/><path fill="#ff9962" d="M392.8569,469.39713l-5.44824-5.25116q-13.88133,13.1132-25.41829,20.27577l-1.70559,1.00934a11.49684,11.49684,0,0,1-4.8616,1.8483,6.03729,6.03729,0,0,1-4.48221-1.689q-4.08494-3.44617-8.23316-7.501,2.33179,3.46186-.14644,10.83666a30.66993,30.66993,0,0,1-8.48322,13.31167,63.31546,63.31546,0,0,0,14.059,4.45916,6.90784,6.90784,0,0,0,4.96842-1.31693Q369.57522,495.93061,392.8569,469.39713Z"/></g><path fill="#ff9962" d="M391.77983,469.89769l1.07707-.50056a39.7895,39.7895,0,0,0,8.96437-5.36167q4.02583-3.23663,3.23571-7.09164a16.11824,16.11824,0,0,0-5.48556-7.6028q-1.62771-1.25941-3.99406.06077-4.48221,2.68089-8.1687,14.74418l-.38038,1.15946Z" data-name="Layer0 11 MEMBER 9 FILL"/><path fill="#ff9962" d="M300.18823,437.10334q8.66594,5.68182,12.74988,2.47591a9.817,9.817,0,0,0,3.0893-3.97817q1.52027-2.437,2.27655-12.45147a162.01337,162.01337,0,0,0,.55094-16.24776l-21.56506,4.42038-9.02071,13.50234Q291.51,431.1977,300.18823,437.10334Z" data-name="Layer0 11 MEMBER 10 MEMBER 0 FILL"/><path fill="#3542a8" d="M325.63476,407.49325q3.15129-3.66712-.13013-6.83037a3.40419,3.40419,0,0,0-4.29181-.43966,4.71447,4.71447,0,0,1-2.89918.3828,6.70907,6.70907,0,0,1-3.08442-1.03564,16.89614,16.89614,0,0,0-13.14745-3.01126,17.21257,17.21257,0,0,0-10.69347,6.55852q-5.04509,6.5018-5.86015,12.9705a17.66253,17.66253,0,0,0,1.93022,10.83822q3.61359,6.94584,9.969,9.14167a38.81665,38.81665,0,0,0,2.82184-10.36081q.87553-4.70191,7.86461-1.75894a18.58431,18.58431,0,0,0,1.88339-4.83782q.4498-1.96524,1.301-7.27685.475-2.326,2.45235-1.49053Q320.76476,413.087,325.63476,407.49325Z" data-name="Layer0 11 MEMBER 10 MEMBER 1 FILL"/><path fill="#ff9962" d="M304.86607,424.52984a3.44288,3.44288,0,0,0,.50027-2.68682,3.27312,3.27312,0,0,0-1.47831-2.22845,3.5228,3.5228,0,0,0-4.91528.978,3.273,3.273,0,0,0-.51265,2.62461,3.44258,3.44258,0,0,0,1.49069,2.29066,3.68458,3.68458,0,0,0,4.91528-.978Z" data-name="Layer0 11 MEMBER 10 MEMBER 2 FILL"/><path fill="#141d64" d="M535.3,724.15a4.614,4.614,0,0,0,4.5,4.5,4.37261,4.37261,0,0,0,3.2-1.35,4.29,4.29,0,0,0,1.3-3.15,4.43985,4.43985,0,0,0-4.5-4.5,4.29,4.29,0,0,0-3.15,1.3A4.37311,4.37311,0,0,0,535.3,724.15Z" data-name="Layer0 12 MEMBER 0 FILL"/><path fill="#1c2777" d="M531.3424,721.88249a2.989,2.989,0,0,1,2.1981-.8972h4.88971a3.06635,3.06635,0,0,1,3.1402,3.14021v.04485a2.98936,2.98936,0,0,1-.8972,2.19815,3.06281,3.06281,0,0,1-2.243.942H533.5405a3.21972,3.21972,0,0,1-3.1402-3.1402v-.04485A3.06277,3.06277,0,0,1,531.3424,721.88249Z" data-name="Layer0 12 MEMBER 0 MEMBER 0 FILL"/><path fill="none" stroke="#029f84" stroke-linecap="round" stroke-linejoin="round" stroke-width="2" d="M179.032,821.14946q-3.27474-.04486-3.58876,3.58876V925.31327q.35886,15.74569,13.68216,16.23918H498.342q17.22607-1.25609,17.71954-16.14946V734.92946q-.08971-10.76628,10.67657-10.67657h5.92143" data-name="Layer0 12 MEMBER 1 1 STROKES"/><path fill="#bdcdee" d="M859.99405,706.118v-12.202H562.52689v12.202Z" data-name="Layer0 13 MEMBER 0 FILL"/><path fill="#bdcdee" d="M596.50492,696.91346h-7.58131L514.76988,946.24573h7.58142l11.48411-38.48991h69.892l-11.43932,38.48991h7.58131l74.15372-249.33227h-7.5813L651.324,747.78474H581.3871l15.11782-50.87128m-17.49543,58.8564h69.892l-12.78512,43.06567H566.17957l12.82992-43.06567m54.72929,51.05078-12.78512,43.06568H551.01685l12.83-43.06568h69.89191M606.105,899.7707H536.16812l12.47112-41.89932h69.892Z" data-name="Layer0 13 MEMBER 1 FILL"/><path fill="#bdcdee" d="M834.9814,696.91346H827.4l15.11793,50.87128H772.581l-15.11783-50.87128h-7.58131l74.15362,249.33227h7.58142l-11.43932-38.48991h69.892l11.48412,38.48991h7.58142L834.9814,696.91346m-59.9779,58.8564h69.89191l12.83,43.06567H787.78862L775.0035,755.76986m85.05464,51.05078,12.83,43.06568H802.95124l-12.78513-43.06568h69.892m15.20763,51.05074,12.471,41.89932H817.8l-12.42621-41.89932Z" data-name="Layer0 13 MEMBER 2 FILL"/><path fill="#141d64" d="M602.55,606a4.21125,4.21125,0,0,0,1.35-3.15,4.37289,4.37289,0,0,0-1.35-3.2,4.28977,4.28977,0,0,0-3.15-1.3,4.39882,4.39882,0,0,0-3.15,1.3,4.45734,4.45734,0,0,0-1.3,3.2,4.5246,4.5246,0,0,0,4.45,4.5A4.2113,4.2113,0,0,0,602.55,606Z" data-name="Layer0 14 FILL"/><path fill="#1c2777" d="M607.95758,600.58249a2.98894,2.98894,0,0,0-2.1981-.8972h-4.8897a3.06635,3.06635,0,0,0-3.14021,3.1402v.04485a2.98944,2.98944,0,0,0,.8972,2.19816,3.06285,3.06285,0,0,0,2.243.942h4.8897a3.21974,3.21974,0,0,0,3.14021-3.14021v-.04485A3.06273,3.06273,0,0,0,607.95758,600.58249Z" data-name="Layer0 14 MEMBER 0 FILL"/><path fill="#e65a5b" d="M170.53133,819.79922a1.22558,1.22558,0,0,0-1.2112,1.2112v.04485a1.22568,1.22568,0,0,0,1.2112,1.21126h2.33276a1.22558,1.22558,0,0,0,1.2112-1.21126v-.04485a1.22547,1.22547,0,0,0-1.2112-1.2112Z" data-name="Layer0 14 MEMBER 1 FILL"/><path fill="none" stroke="#fa6465" stroke-linecap="round" stroke-linejoin="round" stroke-width="2" d="M606.45346,602.863H612.689q6.19062.85235,9.51019,4.30653,4.17192,4.3963,4.172,13.18867v63.566q-.71777,9.5102-8.299,9.9588h-29.069q-5.47285-.17935-7.89528,2.28781-2.33274,2.33265-2.10838,7.49155V932.22163q.04486,7.31214-3.3196,10.856-2.91582,3.00564-8.56819,3.40932H461.91609q-3.14018-.08971-4.48593-1.57t-1.52522-5.06915v-4.71021a4.354,4.354,0,0,0-1.34578-3.18508,4.27941,4.27941,0,0,0-3.14019-1.30088,4.44229,4.44229,0,0,0-4.48594,4.486v7.49155q-.35887,3.40929-3.45418,3.85786H274.98649a5.933,5.933,0,0,1-4.486-1.57q-1.30091-1.43553-1.52522-5.06915v-4.71021a4.354,4.354,0,0,0-1.34577-3.18508,4.27936,4.27936,0,0,0-3.14019-1.30088,4.44229,4.44229,0,0,0-4.48594,4.486v7.49155a3.97922,3.97922,0,0,1-3.45418,3.85786H233.98488a5.93294,5.93294,0,0,1-4.486-1.57q-1.30092-1.43553-1.52521-5.06915v-.58318a4.35378,4.35378,0,0,0-1.3458-3.185,4.27885,4.27885,0,0,0-3.14016-1.30089,4.44231,4.44231,0,0,0-4.486,4.48591v3.36452a3.97922,3.97922,0,0,1-3.45419,3.85786H181.27494q-13.3233-.49336-13.68216-16.23912V824.73822q.314-3.63358,3.58877-3.58876" data-name="Layer0 14 MEMBER 2 1 STROKES"/><g data-name="Layer0 15 FILL"><path fill="#1c2777" d="M222.20439,379.71886l8.56828,5.56266-7.26734-6.45986Z"/><path fill="#bdcdee" d="M223.50533,378.82166l-28.531-30.68431,16.28421,39.118,10.94585-7.53648,1.30094-.8972m7.89538-5.38321,8.47855-5.92154-44.90493-19.37956Z"/><path fill="#82a3e6" d="M194.97433,348.13735l28.531,30.68431,7.26734,6.45986.628-11.84307Z"/></g><path fill="#3542a8" d="M252.99233,636.00171a.86732.86732,0,1,0,.26916.62805.8607.8607,0,0,0-.26916-.62805m-4.486-1.25611a.86733.86733,0,1,0,.26916.62806.86067.86067,0,0,0-.26916-.62806m-9.77949-2.9159a.86732.86732,0,1,0,.628-.26915.8609.8609,0,0,0-.628.26915m4.30657,1.5701a.86732.86732,0,1,0,.628-.26915.86086.86086,0,0,0-.628.26915M234.51,630.0802a.86719.86719,0,1,0,.628-.2692.86062.86062,0,0,0-.628.2692m-2.8262-1.929a.86729.86729,0,1,0,.26917.62805.86064.86064,0,0,0-.26917-.62805m-3.99254-2.15331a.86732.86732,0,1,0,.26916.62805.86071.86071,0,0,0-.26916-.62805m-7.22248-4.39625a.91987.91987,0,1,0-.26915.62805.86085.86085,0,0,0,.26915-.62805m2.78133,1.74955a.91988.91988,0,1,0,.628.26915.86071.86071,0,0,0-.628-.26915M207.908,607.78471a.86732.86732,0,1,0,.26916.62805.86087.86087,0,0,0-.26916-.62805m-2.243-3.94765a.86726.86726,0,1,0,.26916.628.86072.86072,0,0,0-.26916-.628m-3.09535-4.08232a.86736.86736,0,1,0,.628-.26914.86092.86092,0,0,0-.628.26914m14.13093,18.34779a.86732.86732,0,1,0,.26916.62805.86091.86091,0,0,0-.26916-.62805m-4.486-3.14021a.86733.86733,0,1,0,.628-.26915.86072.86072,0,0,0-.628.26915m-1.43551-2.82615a.92.92,0,1,0-.26917.628.86067.86067,0,0,0,.26917-.628M202.39017,595.493a.86732.86732,0,1,0,.26916.62805.86071.86071,0,0,0-.26916-.62805m-1.07664-4.30656a.86733.86733,0,1,0,.26916.62805.86094.86094,0,0,0-.26916-.62805m-.6729-4.39625a.86726.86726,0,1,0,.26916.628.86081.86081,0,0,0-.26916-.628m-.40374-4.53092a.86735.86735,0,1,0,.26915.62806.86071.86071,0,0,0-.26915-.62806m-1.301-4.486a.86733.86733,0,1,0,.62805-.26915.86087.86087,0,0,0-.62805.26915m1.43552-4.486a.86729.86729,0,1,0,.26917.62805.86067.86067,0,0,0-.26917-.62805m.40374-4.486a.86733.86733,0,1,0,.26916.62805.86071.86071,0,0,0-.26916-.62805m0-4.71028a.91988.91988,0,1,0,.628.26915.86071.86071,0,0,0-.628-.26915m1.43553-4.12713a.86729.86729,0,1,0,.26916.62805.86094.86094,0,0,0-.26916-.62805m.94206-4.39628a.8673.8673,0,1,0,.26915.628.8606.8606,0,0,0-.26915-.628m.40374-4.75519a.91994.91994,0,1,0,.628.26918.86061.86061,0,0,0-.628-.26918M204.7229,548.39a.91988.91988,0,1,0-.62806-.26917.8608.8608,0,0,0,.62806.26917m1.88411-5.83181a.86729.86729,0,1,0,.26916.628.86062.86062,0,0,0-.26916-.628m.08973-4.30658a.8673.8673,0,1,0,.628-.26915.86074.86074,0,0,0-.628.26915m2.64674-4.21683a.86729.86729,0,1,0,.26916.628.86067.86067,0,0,0-.26916-.628m.85234-4.486a.91988.91988,0,1,0,.628.26915.86071.86071,0,0,0-.628-.26915m2.10843-3.94768a.86729.86729,0,1,0,.26916.628.86078.86078,0,0,0-.26916-.628m.314-4.172a.86733.86733,0,1,0,.62805-.26915.8608.8608,0,0,0-.62805.26915m3.94769-6.90843a.92.92,0,1,0-.628-.26918.86073.86073,0,0,0,.628.26918m-1.65982,2.33273a.9199.9199,0,1,0,.628.26915.86087.86087,0,0,0-.628-.26915m3.99254-8.07482a.86729.86729,0,1,0,.26916.628.86071.86071,0,0,0-.26916-.628m1.7944-7.71594a.9199.9199,0,1,0,.26917-.628.86069.86069,0,0,0-.26917.628m2.557-3.31965a.91988.91988,0,1,0-.628-.26915.86071.86071,0,0,0,.628.26915m-4.21684,7.49163a.91988.91988,0,1,0,.26916-.628.86077.86077,0,0,0-.26916.628m6.50471-13.23372a.86729.86729,0,1,0,.26916.62805.861.861,0,0,0-.26916-.62805m.13457-3.63365a.91988.91988,0,1,0,.26917-.62806.86074.86074,0,0,0-.26917.62806m3.18507-3.63369a.86724.86724,0,1,0-.628.26918.86074.86074,0,0,0,.628-.26918m1.70468-5.60751a.86729.86729,0,1,0,.26916.62806.86067.86067,0,0,0-.26916-.62806m1.5701-4.2617a.86726.86726,0,1,0,.26917.62805.86066.86066,0,0,0-.26917-.62805m.94207-4.53086a.91988.91988,0,1,0,.628.26915.86071.86071,0,0,0-.628-.26915m2.15329-3.94768a.86732.86732,0,1,0,.26915.628.86075.86075,0,0,0-.26915-.628m4.172-12.91972a.86732.86732,0,1,0,.26916.62805.86079.86079,0,0,0-.26916-.62805m-2.73647,8.658a.86727.86727,0,1,0,.26917.628.86071.86071,0,0,0-.26917-.628m.76263-4.57573a.91988.91988,0,1,0,.628.26915.8607.8607,0,0,0-.628-.26915m3.22992-8.43369a.86729.86729,0,1,0,.26916.628.86073.86073,0,0,0-.26916-.628m1.39066-3.858a.91988.91988,0,1,0-.26916.628.86072.86072,0,0,0,.26916-.628m1.615-9.68977a.86729.86729,0,1,0,.26916.628.86067.86067,0,0,0-.26916-.628m-1.48038,4.21683a.91994.91994,0,1,0,.628.26918.86063.86063,0,0,0-.628-.26918m2.19814-8.70284a.86727.86727,0,1,0,.26917.628.86065.86065,0,0,0-.26917-.628m.49347-4.53088a.86734.86734,0,1,0,.26915.628.86084.86084,0,0,0-.26915-.628m-.40376-4.8a.91987.91987,0,1,0,.62806.26915.861.861,0,0,0-.62806-.26915m-.6729-4.2617a.86726.86726,0,1,0,.62805-.26918.86079.86079,0,0,0-.62805.26918m.94207-3.27481a.86727.86727,0,1,0-.628.26917.86068.86068,0,0,0,.628-.26917m-.71777-5.83181a.86729.86729,0,1,0,.26917.62805.86074.86074,0,0,0-.26917-.62805m-2.60188-3.90281a.9199.9199,0,1,0,.26917-.628.86073.86073,0,0,0-.26917.628m.04487-4.93461a.86729.86729,0,1,0,.26916.628.86077.86077,0,0,0-.26916-.628m-1.929-4.12713a.86729.86729,0,1,0,.26916.628.86072.86072,0,0,0-.26916-.628m-2.33272-3.858a.86732.86732,0,1,0,.26916.628.86086.86086,0,0,0-.26916-.628m-2.4673-2.96076a.9199.9199,0,1,0-.26917.62806.86081.86081,0,0,0,.26917-.62806m-3.31965-3.90283a.86732.86732,0,1,0,.26915.628A.86072.86072,0,0,0,231.41464,384.69555Z" data-name="Layer0 16 STROKES 1 FILL"/><path fill="none" stroke="#3542a8" stroke-linecap="round" stroke-linejoin="round" stroke-width="2" d="M872.349,556.14978a8.95985,8.95985,0,1,1-2.62427-6.3476A8.647,8.647,0,0,1,872.349,556.14978Z" data-name="Layer0 17 1 STROKES"/><path fill="none" stroke="#3542a8" stroke-linecap="round" stroke-linejoin="round" stroke-width="2" d="M648.09335,340.83857a9.03718,9.03718,0,0,1-8.97187,8.97191,8.97694,8.97694,0,1,1,8.97187-8.97191Z" data-name="Layer0 18 1 STROKES"/><path fill="none" stroke="#3542a8" stroke-linecap="round" stroke-linejoin="round" stroke-width="2" d="M365.47838,376.72619a4.59945,4.59945,0,0,1-4.48593,4.486,4.354,4.354,0,0,1-3.18505-1.34578,4.27906,4.27906,0,0,1-1.30092-3.14019,4.44236,4.44236,0,0,1,4.486-4.48594,4.27891,4.27891,0,0,1,3.14015,1.30092A4.35385,4.35385,0,0,1,365.47838,376.72619Z" data-name="Layer0 19 1 STROKES"/><path fill="none" stroke="#3542a8" stroke-linecap="round" stroke-linejoin="round" stroke-width="2" d="M217.37145,654.79463a8.95985,8.95985,0,1,1-2.62427-6.34759A8.64706,8.64706,0,0,1,217.37145,654.79463Z" data-name="Layer0 20 1 STROKES"/><path fill="none" stroke="#3542a8" stroke-linecap="round" stroke-linejoin="round" stroke-width="2" d="M393.194,282.49814l4.48593,4.486m-4.48593-4.486-4.486,4.486m0-8.97191,4.486,4.48594,4.48593-4.48594" data-name="Layer0 21 1 STROKES"/><path fill="none" stroke="#3542a8" stroke-linecap="round" stroke-linejoin="round" stroke-width="2" d="M195.01618,470.91149l4.486,4.486,4.486-4.486m-4.486,4.486,4.486,4.48594m-4.486-4.48594-4.486,4.48594" data-name="Layer0 22 1 STROKES"/><path fill="none" stroke="#3542a8" stroke-linecap="round" stroke-linejoin="round" stroke-width="2" d="M770.43373,654.78292l4.486,4.48591,4.48591-4.48591m-4.48591,4.48591,4.48591,4.486m-4.48591-4.486-4.486,4.486" data-name="Layer0 23 1 STROKES"/><path fill="none" stroke="#3542a8" stroke-linecap="round" stroke-linejoin="round" stroke-width="2" d="M784.46437,449.7577l4.486,4.486m-4.486-4.486-4.486,4.486m0-8.9719,4.486,4.48593,4.486-4.48593" data-name="Layer0 24 1 STROKES"/><path fill="#1c2777" d="M767.19486,607.43487a1.00357,1.00357,0,0,0-.368-1.37367l-8.32637-4.808a1.00358,1.00358,0,0,0-1.37368.368,4.76287,4.76287,0,0,0-.37252,4.29567,6.64069,6.64069,0,0,0,6.90627,3.988A4.76286,4.76286,0,0,0,767.19486,607.43487Z" data-name="Layer0 25 MEMBER 0 FILL"/><path fill="#82a3e6" d="M760.47843,588.63964a1.162,1.162,0,0,0-1.585.42458l-3.57413,6.18951a5.44438,5.44438,0,0,0,1.9955,7.44953l8.84887,5.10977a5.44755,5.44755,0,0,0,7.44953-1.99551l3.57412-6.18951a1.11756,1.11756,0,0,0,.11528-.88025,1.09231,1.09231,0,0,0-.53315-.70089Z" data-name="Layer0 25 MEMBER 1 FILL"/><path fill="#1c2777" d="M757.56053,591.23325a1.16028,1.16028,0,0,0-1.16043,2.00958l18.43457,10.645a1.16028,1.16028,0,0,0,1.16043-2.00958Z" data-name="Layer0 25 MEMBER 2 FILL"/><path fill="#bdcdee" d="M801.48611,574.85766a20.86144,20.86144,0,1,0-41.45161-4.72293,20.60071,20.60071,0,0,0,.9346,8.668,5.73051,5.73051,0,0,1-.06676,2.66791,14.48545,14.48545,0,0,1-1.23845,2.50047l-.12765.221a6.89423,6.89423,0,0,0-1.06672,4.19851,4.40051,4.40051,0,0,0,.74857,2.07579,1.15906,1.15906,0,0,0,.365.3269l16.02977,9.25637a1.11936,1.11936,0,0,0,.33522.131,3.83858,3.83858,0,0,0,1.93409-.17833,6.57245,6.57245,0,0,0,3.57114-3.19894,10.61231,10.61231,0,0,1,2.881-3.133,13.26011,13.26011,0,0,1,2.085-1.306,20.88747,20.88747,0,0,0,15.06674-17.50692Z" data-name="Layer0 25 MEMBER 3 FILL"/><path fill="#bdcdee" d="M809.70788,590.056a1.16028,1.16028,0,0,0,1.16043-2.00958l-7.76369-4.48313a1.16028,1.16028,0,0,0-1.16043,2.00958Z" data-name="Layer0 25 MEMBER 4 FILL"/><path fill="#bdcdee" d="M813.76076,563.7328a1.15644,1.15644,0,0,0,.28018-2.12486,1.13079,1.13079,0,0,0-.87638-.122l-8.81264,2.36064a1.15154,1.15154,0,0,0-.70475.53986,1.16508,1.16508,0,0,0,1.301,1.707Z" data-name="Layer0 25 MEMBER 5 FILL"/><path fill="#bdcdee" d="M759.02621,560.79a1.16028,1.16028,0,0,0,1.16043-2.00958l-7.76369-4.48313a1.16028,1.16028,0,0,0-1.16043,2.00958Z" data-name="Layer0 25 MEMBER 6 FILL"/><path fill="#bdcdee" d="M774.27914,539.03162a1.11418,1.11418,0,0,0-.54373-.69806,1.13074,1.13074,0,0,0-.87638-.122,1.11763,1.11763,0,0,0-.70476.53985,1.10135,1.10135,0,0,0-.11528.88025l2.35678,8.81934a1.06877,1.06877,0,0,0,.54372.69806,1.11764,1.11764,0,0,0,.88025.11528,1.10132,1.10132,0,0,0,.70476-.53986,1.1176,1.1176,0,0,0,.11528-.88025Z" data-name="Layer0 25 MEMBER 7 FILL"/><path fill="#bdcdee" d="M799.21812,543.4553a1.16028,1.16028,0,0,0-2.00958-1.16043l-4.48313,7.76369A1.16028,1.16028,0,0,0,794.735,551.219Z" data-name="Layer0 25 MEMBER 8 FILL"/><path fill="#1c2777" d="M755.47176,594.8505a1.16028,1.16028,0,0,0-1.16044,2.00958l18.43458,10.645a1.16028,1.16028,0,0,0,1.16043-2.00958Z" data-name="Layer0 25 MEMBER 9 FILL"/><path fill="#fff" d="M797.67849,574.55259a16.8601,16.8601,0,0,0-8.289-16.67526.77353.77353,0,1,0-.77362,1.33972,15.29964,15.29964,0,0,1,5.59874,20.901.77353.77353,0,1,0,1.33972.77362A16.55565,16.55565,0,0,0,797.67849,574.55259Z" data-name="Layer0 25 MEMBER 10 FILL"/></svg>